<?xml version="1.0" encoding="UTF-8"?>
<svg version="1.1" xmlns="http://www.w3.org/2000/svg" width="500" height="500">
<path d="M0 0 C23.98608305 -0.61819802 49.68622667 5.93315885 68.5859375 21.12890625 C67.07035612 25.12290895 64.67812 26.74928502 61.2109375 29.12890625 C54.99396162 33.26504612 54.99396162 33.26504612 50.5859375 39.12890625 C50.05228237 44.94236572 50.05228237 44.94236572 52.4609375 50.06640625 C55.99254806 53.49414591 58.56065739 53.3452249 63.3984375 53.62890625 C67.55631551 53.87426048 71.52207352 54.20002305 75.5859375 55.12890625 C75.04998403 61.85885368 73.70841795 67.75206234 71.5234375 74.12890625 C71.21470703 75.03882324 70.90597656 75.94874023 70.58789062 76.88623047 C63.76221521 96.47756037 53.93421611 117.90316617 35.5859375 129.12890625 C29.61956678 131.51545454 23.39167428 130.3696795 17.63769531 128.10546875 C14.31891338 126.5258486 11.64052134 124.35342822 8.8359375 122.00390625 C7.61516044 121.01881564 6.39379633 120.03445213 5.171875 119.05078125 C3.9762841 118.07716469 2.78096144 117.10321862 1.5859375 116.12890625 C-10.9015463 105.97857115 -23.01310935 99.5252575 -39.4140625 101.12890625 C-64.55259068 108.24127032 -81.43919065 131.75717796 -93.7265625 153.31640625 C-94.13511475 154.05963135 -94.54366699 154.80285645 -94.96459961 155.56860352 C-95.35655518 156.26268311 -95.74851074 156.9567627 -96.15234375 157.671875 C-96.66341675 158.60036255 -96.66341675 158.60036255 -97.18481445 159.54760742 C-98.68622209 161.47901105 -100.18264972 162.18774423 -102.4140625 163.12890625 C-108.34765515 153.7830776 -109.9126244 143.13403936 -111.6640625 132.37890625 C-111.83929443 131.31381836 -112.01452637 130.24873047 -112.19506836 129.15136719 C-116.68848125 100.11282786 -108.19477472 70.4170193 -91.0390625 46.81640625 C-89.52120862 44.90145462 -87.97914869 43.00545238 -86.4140625 41.12890625 C-85.60582031 40.14535156 -84.79757813 39.16179687 -83.96484375 38.1484375 C-64.82015285 16.02759136 -37.84152067 3.03210028 -8.8515625 0.50390625 C-5.9017515 0.31393013 -2.95163271 0.15761146 0 0 Z " fill="#3B5163" transform="translate(242.4140625,127.87109375)"/>
<path d="M0 0 C0.99 0 1.98 0 3 0 C13.64663317 30.1112793 14.0974573 62.02141899 0.14990234 91.24829102 C-6.00698439 103.64859528 -13.28603273 114.1367958 -23 124 C-23.75796875 124.78246094 -24.5159375 125.56492187 -25.296875 126.37109375 C-48.01647925 148.3464351 -79.11183012 156.75663583 -109.8984375 156.24609375 C-133.63748137 155.5131371 -156.91901662 146.31160851 -175.5 131.6875 C-176.14155029 131.18395996 -176.78310059 130.68041992 -177.4440918 130.16162109 C-182.49270929 126.00132136 -182.49270929 126.00132136 -183 122 C-182.17331905 119.45728459 -181.2888488 117.17010368 -180.1875 114.75 C-179.71751587 113.70078369 -179.71751587 113.70078369 -179.23803711 112.63037109 C-171.61663499 96.16608218 -159.84303667 76.09761378 -143 68 C-136.49328679 66.04798604 -130.18554128 66.09260047 -124 69 C-119.50586231 71.48820065 -115.64213566 74.54199016 -111.69921875 77.81640625 C-97.58409556 89.23515279 -85.45329113 96.05447378 -67 95 C-64.0132473 94.4287896 -61.65374361 93.46582552 -59 92 C-58.15566406 91.53980469 -57.31132812 91.07960938 -56.44140625 90.60546875 C-52.89492183 88.57228828 -49.71902502 86.72549107 -46.828125 83.80859375 C-45 82 -45 82 -43 82 C-42.74605469 81.41476562 -42.49210938 80.82953125 -42.23046875 80.2265625 C-40.86841699 77.76189741 -39.37698467 76.28130215 -37.3125 74.375 C-19.87717209 57.28523715 -10.50806997 31.70871824 -3 9 C-2.43388846 7.30198505 -1.86749321 5.60406465 -1.30078125 3.90625 C-0.86709075 2.60419889 -0.43345931 1.30212809 0 0 Z " fill="#9EAD90" transform="translate(348,199)"/>
<path d="M0 0 C2.25 0.875 2.25 0.875 4.25 2.875 C5.22376359 5.46316599 6.11620948 8.03501962 6.96484375 10.6640625 C7.34945518 11.829944 7.34945518 11.829944 7.74183655 13.01937866 C8.56273355 15.51109609 9.37544111 18.0053897 10.1875 20.5 C10.9974794 22.97267036 11.80918073 25.44476168 12.62245178 27.91635132 C13.12782636 29.4538821 13.63108402 30.99211096 14.13182068 32.53115845 C15.31254629 36.13898349 16.55821232 39.69083118 17.94750977 43.22412109 C19.23426354 46.83089073 19.47083019 48.323494 18.25 51.875 C16.09375 52.63671875 16.09375 52.63671875 13.25 52.875 C10.53125 51.14453125 10.53125 51.14453125 7.75 48.6875 C6.37328125 47.49060547 6.37328125 47.49060547 4.96875 46.26953125 C4.0715625 45.47933594 3.174375 44.68914062 2.25 43.875 C0.58750905 42.53646371 -1.07854297 41.20232322 -2.75 39.875 C-2.93997559 40.59228271 -3.12995117 41.30956543 -3.32568359 42.04858398 C-12.51349694 76.35975046 -24.87517064 118.50123194 -57.125 138.5 C-65.79780287 143.41756864 -74.9833213 144.36188861 -84.71875 142.22265625 C-94.25829907 139.02910031 -102.11320475 133.36443526 -109.6875 126.875 C-118.84815533 119.16448702 -126.15897066 113.64581768 -138.5703125 114.40625 C-150.66467074 116.18920207 -160.55629068 127.54214016 -167.69140625 136.90234375 C-175.06537756 147.55052622 -181.37758605 158.71070697 -187.03125 170.3515625 C-192.94354839 182.47177419 -192.94354839 182.47177419 -195.75 183.875 C-198.78867255 184.13361043 -200.94562977 184.29015883 -203.6875 182.875 C-205.43746456 179.58094905 -204.57682639 176.36336243 -203.75 172.875 C-202.30896859 169.0729914 -200.55473085 165.45368726 -198.75 161.8125 C-198.2552417 160.79969971 -197.7604834 159.78689941 -197.25073242 158.7434082 C-191.21986645 146.55867642 -184.69647173 135.18589502 -175.75 124.875 C-175.04101562 124.03324219 -174.33203125 123.19148438 -173.6015625 122.32421875 C-163.68096485 110.8546155 -152.18365848 101.46928283 -136.625 99.75 C-129.89905168 99.54866895 -124.74016557 100.89363515 -118.75 103.875 C-117.97785156 104.25398438 -117.20570313 104.63296875 -116.41015625 105.0234375 C-110.68464897 108.16722686 -105.81409169 112.21838612 -100.8125 116.375 C-88.72492627 126.52620548 -88.72492627 126.52620548 -73.75 129.875 C-61.47181101 127.57555118 -53.06694063 118.13602024 -45.9765625 108.453125 C-32.88321296 88.65942288 -24.95303041 67.43582017 -19.01171875 44.60546875 C-18.06398986 40.97405776 -16.99712775 37.41731121 -15.75 33.875 C-16.49685059 33.85518066 -17.24370117 33.83536133 -18.01318359 33.81494141 C-21.38415605 33.71991789 -24.75448929 33.61014741 -28.125 33.5 C-29.300625 33.4690625 -30.47625 33.438125 -31.6875 33.40625 C-32.80898438 33.36757812 -33.93046875 33.32890625 -35.0859375 33.2890625 C-36.12282715 33.2576416 -37.1597168 33.2262207 -38.22802734 33.19384766 C-40.75 32.875 -40.75 32.875 -42.75 30.875 C-42.8190918 28.57250977 -42.8190918 28.57250977 -41.75 25.875 C-39.4049168 23.93306897 -37.19695609 22.33465714 -34.64453125 20.71484375 C-33.92770676 20.24309219 -33.21088226 19.77134064 -32.47233582 19.28529358 C-30.17806855 17.78001116 -27.87081688 16.29612586 -25.5625 14.8125 C-24.02708595 13.81063626 -22.4925695 12.80739547 -20.95898438 11.80273438 C-17.49817212 9.53869738 -14.02977538 7.28704831 -10.54971313 5.05270386 C-9.36410071 4.27685781 -8.19030173 3.48260441 -7.03012085 2.66921997 C-3.02265709 -0.1373935 -3.02265709 -0.1373935 0 0 Z " fill="#4A5C6F" transform="translate(346.75,140.125)"/>
<path d="M0 0 C1.61648438 0.01353516 1.61648438 0.01353516 3.265625 0.02734375 C4.08546875 0.03894531 4.9053125 0.05054688 5.75 0.0625 C5.21404653 6.79244743 3.87248045 12.68565609 1.6875 19.0625 C1.37876953 19.97241699 1.07003906 20.88233398 0.75195312 21.81982422 C-6.07372229 41.41115412 -15.90172139 62.83675992 -34.25 74.0625 C-40.21637072 76.44904829 -46.44426322 75.30327325 -52.19824219 73.0390625 C-55.51702412 71.45944235 -58.19541616 69.28702197 -61 66.9375 C-62.22077706 65.95240939 -63.44214117 64.96804588 -64.6640625 63.984375 C-65.8596534 63.01075844 -67.05497606 62.03681237 -68.25 61.0625 C-80.7374838 50.9121649 -92.84904685 44.45885125 -109.25 46.0625 C-134.38852818 53.17486407 -151.27512815 76.69077171 -163.5625 98.25 C-163.97105225 98.9932251 -164.37960449 99.7364502 -164.80053711 100.50219727 C-165.19249268 101.19627686 -165.58444824 101.89035645 -165.98828125 102.60546875 C-166.32899658 103.22446045 -166.66971191 103.84345215 -167.02075195 104.48120117 C-168.52215959 106.4126048 -170.01858722 107.12133798 -172.25 108.0625 C-174.06115956 106.25134044 -173.63199448 103.44971773 -173.8125 101 C-173.93818359 99.34291016 -173.93818359 99.34291016 -174.06640625 97.65234375 C-174.15728516 96.37037109 -174.15728516 96.37037109 -174.25 95.0625 C-174.91 95.0625 -175.57 95.0625 -176.25 95.0625 C-178.15304184 90.47281085 -178.90877711 86.77964741 -177.25 82.0625 C-174.552255 76.86934088 -171.49458624 71.92937936 -168.25 67.0625 C-167.59 67.0625 -166.93 67.0625 -166.25 67.0625 C-166.023125 66.216875 -165.79625 65.37125 -165.5625 64.5 C-164.05761382 60.55863144 -162.12296745 57.17488141 -159.25 54.0625 C-158.59 54.0625 -157.93 54.0625 -157.25 54.0625 C-156.59 52.4125 -155.93 50.7625 -155.25 49.0625 C-154.59 49.0625 -153.93 49.0625 -153.25 49.0625 C-153.023125 48.52625 -152.79625 47.99 -152.5625 47.4375 C-149.44444386 41.79530318 -144.6213095 36.65185848 -139.25 33.0625 C-138.26 33.0625 -137.27 33.0625 -136.25 33.0625 C-136.25 32.4025 -136.25 31.7425 -136.25 31.0625 C-134.27645243 29.6184408 -132.33230689 28.33119029 -130.25 27.0625 C-129.13625 26.36125 -128.0225 25.66 -126.875 24.9375 C-117.50775984 19.71294394 -104.53037115 19.31378924 -94.18994141 21.49755859 C-87.96357786 23.29514145 -83.23039927 25.98994182 -78.25 30.0625 C-76.06785432 30.84083534 -76.06785432 30.84083534 -74.25 31.0625 C-74.25 31.7225 -74.25 32.3825 -74.25 33.0625 C-73.610625 33.330625 -72.97125 33.59875 -72.3125 33.875 C-70.25 35.0625 -70.25 35.0625 -69.25 38.0625 C-67.6 38.3925 -65.95 38.7225 -64.25 39.0625 C-64.25 39.7225 -64.25 40.3825 -64.25 41.0625 C-63.734375 41.31 -63.21875 41.5575 -62.6875 41.8125 C-60.25 43.0625 -60.25 43.0625 -57.1875 45.1875 C-52.38946089 47.89988185 -47.60458555 48.04291707 -42.25 47.0625 C-36.05613196 44.36865898 -31.79540617 39.82194892 -27.66015625 34.6015625 C-27.19480469 34.09367187 -26.72945312 33.58578125 -26.25 33.0625 C-25.59 33.0625 -24.93 33.0625 -24.25 33.0625 C-24.13785156 32.33675781 -24.02570313 31.61101562 -23.91015625 30.86328125 C-23.22038613 27.93686007 -22.19489186 25.83962191 -20.6875 23.25 C-20.23246094 22.45980469 -19.77742187 21.66960937 -19.30859375 20.85546875 C-18.78458984 19.96794922 -18.78458984 19.96794922 -18.25 19.0625 C-17.59 19.0625 -16.93 19.0625 -16.25 19.0625 C-16.25 17.7425 -16.25 16.4225 -16.25 15.0625 C-15.59 15.0625 -14.93 15.0625 -14.25 15.0625 C-14.18941406 14.36382812 -14.12882813 13.66515625 -14.06640625 12.9453125 C-13.98261719 12.03523437 -13.89882813 11.12515625 -13.8125 10.1875 C-13.69068359 8.83011719 -13.69068359 8.83011719 -13.56640625 7.4453125 C-13.25 5.0625 -13.25 5.0625 -12.25 3.0625 C-11.59 3.0625 -10.93 3.0625 -10.25 3.0625 C-10.25 2.4025 -10.25 1.7425 -10.25 1.0625 C-6.78777385 -0.00473961 -3.60960734 -0.03923486 0 0 Z " fill="#9AAE91" transform="translate(312.25,182.9375)"/>
<path d="M0 0 C15.9232992 3.29746795 31.18295759 8.69484028 44 19 C42.48441862 22.9940027 40.0921825 24.62037877 36.625 27 C30.40802412 31.13613987 30.40802412 31.13613987 26 37 C25.46634487 42.81345947 25.46634487 42.81345947 27.875 47.9375 C31.46386087 51.42080614 34.20725853 51.24955282 39.125 51.5625 C40.40632813 51.64628906 41.68765625 51.73007813 43.0078125 51.81640625 C43.99523437 51.87699219 44.98265625 51.93757813 46 52 C46 52.33 46 52.66 46 53 C42.37 53.33 38.74 53.66 35 54 C35 54.66 35 55.32 35 56 C34.34 56 33.68 56 33 56 C32.34 59.96 31.68 63.92 31 68 C30.34 68 29.68 68 29 68 C29 69.32 29 70.64 29 72 C28.34 72 27.68 72 27 72 C26.7525 72.825 26.505 73.65 26.25 74.5 C24.81295189 78.52373471 22.97645485 82.21979024 21 86 C20.34 86 19.68 86 19 86 C18.73574219 86.5878125 18.47148437 87.175625 18.19921875 87.78125 C15.11466983 93.48816787 9.19929051 98.91742585 3 101 C-3.74103717 102.30607595 -8.3099913 101.24238853 -14.125 97.625 C-18.79481641 94.41036717 -18.79481641 94.41036717 -20 92 C-22.01669827 90.86649466 -22.01669827 90.86649466 -24 90 C-23.34 90 -22.68 90 -22 90 C-22 60.63 -22 31.26 -22 1 C-14.08029197 1 -14.08029197 1 -10.125 1.9375 C-9.36445313 2.11152344 -8.60390625 2.28554687 -7.8203125 2.46484375 C-6 3 -6 3 -5 4 C-4.34 3.34 -3.68 2.68 -3 2 C-2.01 2 -1.02 2 0 2 C0 1.34 0 0.68 0 0 Z " fill="#516B82" transform="translate(267,130)"/>
<path d="M0 0 C0.763125 0.33 1.52625 0.66 2.3125 1 C2.3125 1.66 2.3125 2.32 2.3125 3 C3.3025 3.33 4.2925 3.66 5.3125 4 C5.3125 4.66 5.3125 5.32 5.3125 6 C5.869375 6.103125 6.42625 6.20625 7 6.3125 C9.7894101 7.14178408 11.9264064 8.34299056 14.3125 10 C14.3125 10.66 14.3125 11.32 14.3125 12 C14.9725 12 15.6325 12 16.3125 12 C16.3125 12.66 16.3125 13.32 16.3125 14 C16.910625 14.28875 17.50875 14.5775 18.125 14.875 C20.3125 16 20.3125 16 23.3125 18 C23.5925287 20.67484951 23.68452851 23.11492334 23.640625 25.7890625 C23.63875183 26.56631683 23.63687866 27.34357117 23.63494873 28.14437866 C23.6282173 29.79372426 23.61428118 31.44305361 23.59375 33.09228516 C23.56287966 35.5942297 23.55280535 38.09554097 23.546875 40.59765625 C23.53769226 42.20313253 23.52731249 43.8086025 23.515625 45.4140625 C23.51137512 46.15395416 23.50712524 46.89384583 23.50274658 47.65615845 C23.43743034 52.50811445 22.9886906 57.19416841 22.3125 62 C18.64487412 61.76737056 14.97823159 61.52615332 11.3125 61.265625 C9.03680736 61.10581512 6.78144612 60.9852485 4.5 60.921875 C-11.78747284 60.20929806 -31.58051377 51.91913097 -43.6875 41 C-44.5 38.75 -44.5 38.75 -44.6875 37 C-44.0275 37 -43.3675 37 -42.6875 37 C-42.44 36.195625 -42.1925 35.39125 -41.9375 34.5625 C-39.19898215 26.75772412 -36.08477226 19.34325172 -30.09765625 13.4296875 C-28.5754719 12.03402363 -28.5754719 12.03402363 -27.6875 10 C-27.0275 10 -26.3675 10 -25.6875 10 C-25.5946875 9.071875 -25.5946875 9.071875 -25.5 8.125 C-24.6875 6 -24.6875 6 -22.125 4.75 C-21.320625 4.5025 -20.51625 4.255 -19.6875 4 C-19.6875 3.34 -19.6875 2.68 -19.6875 2 C-14.34721884 -2.78783828 -6.45931857 -1.75167961 0 0 Z " fill="#C3AD88" transform="translate(219.6875,292)"/>
<path d="M0 0 C0.556875 0.7425 1.11375 1.485 1.6875 2.25 C3.8758014 5.03429681 3.8758014 5.03429681 6.5 7 C9.11834432 9.09467546 10.93935765 11.37090459 13 14 C13.66 14.33 14.32 14.66 15 15 C15 15.66 15 16.32 15 17 C15.66 17 16.32 17 17 17 C17 17.66 17 18.32 17 19 C17.66 19 18.32 19 19 19 C19 19.66 19 20.32 19 21 C19.66 21 20.32 21 21 21 C21 21.66 21 22.32 21 23 C21.556875 23.226875 22.11375 23.45375 22.6875 23.6875 C26.68438886 25.95600449 29.53966649 28.61899946 31 33 C31.66 33 32.32 33 33 33 C33 33.66 33 34.32 33 35 C27.58823529 39 27.58823529 39 25 39 C25 39.66 25 40.32 25 41 C23.34928604 42.02611949 21.68029994 43.02308143 20 44 C19.443125 44.556875 18.88625 45.11375 18.3125 45.6875 C17.879375 46.120625 17.44625 46.55375 17 47 C16.34 47 15.68 47 15 47 C14.773125 47.53625 14.54625 48.0725 14.3125 48.625 C12.54429911 51.82460161 10.46329797 54.29037223 8 57 C7.34 57 6.68 57 6 57 C5.01 59.475 5.01 59.475 4 62 C3.34 62 2.68 62 2 62 C1.7525 62.515625 1.505 63.03125 1.25 63.5625 C0.19473418 65.62026835 -0.91156026 67.62027223 -2.0625 69.625 C-3.07903244 71.39573392 -4.08689137 73.17378275 -5 75 C-5.66 75 -6.32 75 -7 75 C-7.25394531 75.52335937 -7.50789062 76.04671875 -7.76953125 76.5859375 C-8.71939535 78.44948039 -9.72865607 80.28282244 -10.76171875 82.1015625 C-14.69972007 89.20426291 -17.25302981 94.78306775 -15 103 C-14.34 103 -13.68 103 -13 103 C-11.82428549 106.67410785 -11.92633254 110.16929183 -12 114 C-17.55030555 105.67454167 -18.67709479 94.93518858 -20.25 85.25 C-20.42515137 84.18507324 -20.60030273 83.12014648 -20.78076172 82.02294922 C-25.30375216 52.80342891 -16.51719471 24.06577691 0 0 Z " fill="#344754" transform="translate(151,175)"/>
<path d="M0 0 C1.37868281 1.62935241 2.71274093 3.29749607 4 5 C4.99 5.495 4.99 5.495 6 6 C6 6.66 6 7.32 6 8 C6.66 8 7.32 8 8 8 C9.28430862 9.47695491 10.56580708 10.95806138 11.78125 12.4921875 C13.06784671 14.13813095 13.06784671 14.13813095 15 16 C9.91604574 22.59031108 4.64140288 27.17399332 -2.4375 31.4375 C-3.23373779 31.91904541 -4.02997559 32.40059082 -4.8503418 32.89672852 C-24.08252147 44.30819402 -41.45904608 48 -64 48 C-64 34.14 -64 20.28 -64 6 C-60.535 7.485 -60.535 7.485 -57 9 C-57 9.66 -57 10.32 -57 11 C-56.14535156 11.20496094 -55.29070312 11.40992188 -54.41015625 11.62109375 C-53.30542969 11.89050781 -52.20070313 12.15992188 -51.0625 12.4375 C-49.96035156 12.70433594 -48.85820312 12.97117187 -47.72265625 13.24609375 C-45 14 -45 14 -44 15 C-41.14122091 15.23701239 -38.30116703 15.42219182 -35.4375 15.5625 C-34.63119141 15.60568359 -33.82488281 15.64886719 -32.99414062 15.69335938 C-30.99631195 15.79975262 -28.9981793 15.90040888 -27 16 C-27 15.34 -27 14.68 -27 14 C-24.36 13.34 -21.72 12.68 -19 12 C-19 11.34 -19 10.68 -19 10 C-15.91190305 8.23537317 -14.76687864 8 -11 8 C-11 7.34 -11 6.68 -11 6 C-9.34928604 4.97388051 -7.68029994 3.97691857 -6 3 C-5.46375 2.443125 -4.9275 1.88625 -4.375 1.3125 C-3 0 -3 0 0 0 Z " fill="#D0BC9A" transform="translate(309,306)"/>
<path d="M0 0 C2.60140094 1.92535298 5.10824301 3.923527 7.59375 5.99609375 C10.96171973 8.8009127 14.47349012 11.39944523 18 14 C17.34 14.33 16.68 14.66 16 15 C16 37.44 16 59.88 16 83 C19.96 83 23.92 83 28 83 C28 83.33 28 83.66 28 84 C24.08339894 84.05906707 20.16691543 84.09394858 16.25 84.125 C15.15816406 84.14175781 14.06632812 84.15851563 12.94140625 84.17578125 C5.42643067 84.22024856 -1.63271981 83.47778777 -9 82 C-9 81.67 -9 81.34 -9 81 C-6.45805839 81.14188985 -3.91652007 81.28839155 -1.375 81.4375 C-0.66214844 81.47681641 0.05070312 81.51613281 0.78515625 81.55664062 C1.48769531 81.59853516 2.19023437 81.64042969 2.9140625 81.68359375 C3.5529541 81.72025146 4.1918457 81.75690918 4.85009766 81.79467773 C7.59339675 82.05667121 10.28636719 82.52519874 13 83 C13.14831992 76.80707301 13.2572042 70.61517931 13.32958984 64.42089844 C13.35976335 62.31394443 13.4007083 60.20711604 13.45263672 58.10058594 C13.52542673 55.07195066 13.55945024 52.0449753 13.5859375 49.015625 C13.61690521 48.07382385 13.64787292 47.13202271 13.67977905 46.16168213 C13.68108128 43.63125856 13.63840816 41.4494472 13 39 C10.1212014 36.44309971 10.1212014 36.44309971 7 35 C7 34.34 7 33.68 7 33 C6.34 33 5.68 33 5 33 C5 32.34 5 31.68 5 31 C4.2575 30.71125 3.515 30.4225 2.75 30.125 C-4.29885057 27.24137931 -4.29885057 27.24137931 -7 24 C-7 23.34 -7 22.68 -7 22 C-14.36776966 20.40696872 -22.05147252 19.82101726 -29 23 C-29 23.66 -29 24.32 -29 25 C-29.804375 25.474375 -30.60875 25.94875 -31.4375 26.4375 C-34.2918076 27.79983672 -34.2918076 27.79983672 -35 31 C-35.66 31 -36.32 31 -37 31 C-37.226875 31.721875 -37.45375 32.44375 -37.6875 33.1875 C-39.25621997 36.5490428 -41.35641222 38.42088997 -44 41 C-45.80921823 43.61331523 -46.95140615 45.85097886 -47.9375 48.875 C-49.20898518 52.61466229 -50.97810762 55.60843858 -53 59 C-53.495 59.99 -53.495 59.99 -54 61 C-55.48847916 59.92949782 -56.9655195 58.84307756 -58.4375 57.75 C-59.26121094 57.14671875 -60.08492187 56.5434375 -60.93359375 55.921875 C-63 54 -63 54 -63.9609375 52.21875 C-64.02243761 48.72554381 -62.60648967 45.86808768 -61.1875 42.75 C-60.71751587 41.70078369 -60.71751587 41.70078369 -60.23803711 40.63037109 C-52.61663499 24.16608218 -40.84303667 4.09761378 -24 -4 C-15.03274456 -6.69017663 -7.7377683 -5.00182842 0 0 Z " fill="#829775" transform="translate(229,271)"/>
<path d="M0 0 C0.495 0.99 0.495 0.99 1 2 C1.66 2 2.32 2 3 2 C4.36176922 3.64351457 5.68962066 5.31522656 7 7 C9.49529455 9.62325838 11.95323145 11.96362446 14.8125 14.1875 C15.8953125 15.0846875 15.8953125 15.0846875 17 16 C17 16.66 17 17.32 17 18 C18.07378906 17.96519531 19.14757812 17.93039063 20.25390625 17.89453125 C21.69008839 17.86637082 23.12628762 17.83907309 24.5625 17.8125 C25.26697266 17.78736328 25.97144531 17.76222656 26.69726562 17.73632812 C31.88003315 17.66467696 35.36264182 18.67827402 40 21 C38 22 38 22 35.1875 21.0625 C24.77399292 17.95141075 15.37763595 20.00739945 6 25 C-13.61840683 36.05532372 -26.93637333 55.13075211 -37.55053711 74.43969727 C-37.94249268 75.13377686 -38.33444824 75.82785645 -38.73828125 76.54296875 C-39.07899658 77.16196045 -39.41971191 77.78095215 -39.77075195 78.41870117 C-41.27215959 80.3501048 -42.76858722 81.05883798 -45 82 C-46.81115956 80.18884044 -46.38199448 77.38721773 -46.5625 74.9375 C-46.68818359 73.28041016 -46.68818359 73.28041016 -46.81640625 71.58984375 C-46.90728516 70.30787109 -46.90728516 70.30787109 -47 69 C-47.66 69 -48.32 69 -49 69 C-50.90304184 64.41031085 -51.65877711 60.71714741 -50 56 C-47.302255 50.80684088 -44.24458624 45.86687936 -41 41 C-40.34 41 -39.68 41 -39 41 C-38.773125 40.154375 -38.54625 39.30875 -38.3125 38.4375 C-36.80761382 34.49613144 -34.87296745 31.11238141 -32 28 C-31.34 28 -30.68 28 -30 28 C-29.34 26.35 -28.68 24.7 -28 23 C-27.34 23 -26.68 23 -26 23 C-25.6596875 22.195625 -25.6596875 22.195625 -25.3125 21.375 C-22.19444386 15.73280318 -17.3713095 10.58935848 -12 7 C-11.01 7 -10.02 7 -9 7 C-9 6.34 -9 5.68 -9 5 C-6.03 3.35 -3.06 1.7 0 0 Z " fill="#809576" transform="translate(185,209)"/>
<path d="M0 0 C4.75765756 4.75765756 3.12912655 15.22323059 3.13671875 21.5703125 C3.13285156 22.66085938 3.12898438 23.75140625 3.125 24.875 C3.13080078 26.545625 3.13080078 26.545625 3.13671875 28.25 C3.13542969 29.31992188 3.13414062 30.38984375 3.1328125 31.4921875 C3.13168457 32.45495605 3.13055664 33.41772461 3.12939453 34.40966797 C3.01127372 36.77431291 2.58729202 38.7219654 2 41 C2.020625 42.2478125 2.04125 43.495625 2.0625 44.78125 C2.27405837 63.85676266 -12.38816188 85.5334728 -24.0078125 99.515625 C-26 101 -26 101 -28.7421875 100.734375 C-29.85980469 100.37085938 -29.85980469 100.37085938 -31 100 C-31 99.34 -31 98.68 -31 98 C-31.66 98 -32.32 98 -33 98 C-34.625 96.625 -34.625 96.625 -36 95 C-36 94.34 -36 93.68 -36 93 C-36.66 93 -37.32 93 -38 93 C-38 92.34 -38 91.68 -38 91 C-38.66 91 -39.32 91 -40 91 C-40 90.34 -40 89.68 -40 89 C-40.66 89 -41.32 89 -42 89 C-43.75 87.3125 -43.75 87.3125 -45 85 C-44.5625 82.5 -44.5625 82.5 -43 80 C-42.05125 79.38125 -41.1025 78.7625 -40.125 78.125 C-36.22089614 75.47020937 -35.08648895 73.1729779 -33 69 C-32.34 69 -31.68 69 -31 69 C-31 68.34 -31 67.68 -31 67 C-30.34 67 -29.68 67 -29 67 C-28.67 65.02 -28.34 63.04 -28 61 C-27.34 61 -26.68 61 -26 61 C-25.87625 60.4225 -25.7525 59.845 -25.625 59.25 C-24.99351176 56.97664233 -24.11141809 55.0746471 -23 53 C-22.34 53 -21.68 53 -21 53 C-20.81824219 52.34773438 -20.63648438 51.69546875 -20.44921875 51.0234375 C-19.02533404 46.07269989 -17.50592766 41.53453577 -15 37 C-14.34 37 -13.68 37 -13 37 C-12.80083984 36.20335937 -12.80083984 36.20335937 -12.59765625 35.390625 C-11.3984375 30.59375 -10.19921875 25.796875 -9 21 C-8.34 21 -7.68 21 -7 21 C-6.89042969 20.28714844 -6.78085937 19.57429688 -6.66796875 18.83984375 C-5.49136652 11.73240102 -4.03584968 6.05377453 0 0 Z " fill="#D6C4A3" transform="translate(354,219)"/>
<path d="M0 0 C0 3 0 3 -1.3125 4.38671875 C-2.875 5.59114583 -4.4375 6.79557292 -6 8 C-3.00617439 11.58834417 0.00869795 15.06642302 3.375 18.3125 C6 21 6 21 6 23 C5.34 23 4.68 23 4 23 C4 23.66 4 24.32 4 25 C3.34 25 2.68 25 2 25 C1.7525 25.639375 1.505 26.27875 1.25 26.9375 C0 29 0 29 -2.125 29.75 C-3.053125 29.87375 -3.053125 29.87375 -4 30 C-4 30.66 -4 31.32 -4 32 C-6.64 32.66 -9.28 33.32 -12 34 C-12 34.66 -12 35.32 -12 36 C-14.90600261 37.25664978 -16.79604584 38 -20 38 C-20 38.66 -20 39.32 -20 40 C-31.18056844 40.34658479 -39.87524669 40.14060323 -50 35 C-50 34.34 -50 33.68 -50 33 C-50.969375 32.690625 -51.93875 32.38125 -52.9375 32.0625 C-56 31 -56 31 -57 30 C-57.08748207 28.07332493 -57.10697334 26.14348139 -57.09765625 24.21484375 C-57.09443359 23.04501953 -57.09121094 21.87519531 -57.08789062 20.66992188 C-57.07951172 19.43822266 -57.07113281 18.20652344 -57.0625 16.9375 C-57.05798828 15.70193359 -57.05347656 14.46636719 -57.04882812 13.19335938 C-57.03699608 10.12885883 -57.02051173 7.06445279 -57 4 C-52.84365274 4.74366125 -49.6862271 6.02848233 -45.9375 8 C-37.30442415 12.52882668 -28.23116554 13.38294576 -18.58984375 11.5390625 C-16.59511805 10.84275168 -14.84922738 10.0231381 -13 9 C-12.1440625 8.52820313 -11.288125 8.05640625 -10.40625 7.5703125 C-6.55327053 5.3448847 -3.03070007 3.29551852 0 0 Z " fill="#93A787" transform="translate(302,282)"/>
<path d="M0 0 C2.25 0.875 2.25 0.875 4.25 2.875 C5.22376359 5.46316599 6.11620948 8.03501962 6.96484375 10.6640625 C7.22125137 11.44131683 7.477659 12.21857117 7.74183655 13.01937866 C8.56273355 15.51109609 9.37544111 18.0053897 10.1875 20.5 C10.9974794 22.97267036 11.80918073 25.44476168 12.62245178 27.91635132 C13.12782636 29.4538821 13.63108402 30.99211096 14.13182068 32.53115845 C15.31254629 36.13898349 16.55821232 39.69083118 17.94750977 43.22412109 C19.23426354 46.83089073 19.47083019 48.323494 18.25 51.875 C16.1015625 52.640625 16.1015625 52.640625 13.25 52.875 C10.4609375 51.109375 10.4609375 51.109375 7.625 48.625 C6.68398438 47.81546875 5.74296875 47.0059375 4.7734375 46.171875 C2.87628109 44.44505151 1.03331953 42.71635656 -0.75 40.875 C-5.93498805 35.56038725 -8.45008535 33.63840518 -15.97265625 33.53125 C-16.6739415 33.5166272 -17.37522675 33.50200439 -18.09776306 33.48693848 C-21.09567312 33.42470145 -24.09378686 33.38500672 -27.09204102 33.34326172 C-29.28163429 33.30957932 -31.47078656 33.26446386 -33.66015625 33.21875 C-34.97121338 33.20005859 -36.28227051 33.18136719 -37.63305664 33.16210938 C-40.75 32.875 -40.75 32.875 -42.75 30.875 C-42.8190918 28.57250977 -42.8190918 28.57250977 -41.75 25.875 C-39.4049168 23.93306897 -37.19695609 22.33465714 -34.64453125 20.71484375 C-33.92770676 20.24309219 -33.21088226 19.77134064 -32.47233582 19.28529358 C-30.17806855 17.78001116 -27.87081688 16.29612586 -25.5625 14.8125 C-24.02708595 13.81063626 -22.4925695 12.80739547 -20.95898438 11.80273438 C-17.49817212 9.53869738 -14.02977538 7.28704831 -10.54971313 5.05270386 C-9.36410071 4.27685781 -8.19030173 3.48260441 -7.03012085 2.66921997 C-3.02265709 -0.1373935 -3.02265709 -0.1373935 0 0 Z " fill="#506479" transform="translate(346.75,140.125)"/>
<path d="M0 0 C-0.33 0.99 -0.66 1.98 -1 3 C-1.66 3 -2.32 3 -3 3 C-3 2.34 -3 1.68 -3 1 C-5.31 1.99 -7.62 2.98 -10 4 C-8.93354885 5.29633621 -8.93354885 5.29633621 -6.4375 5.0625 C-5.633125 5.041875 -4.82875 5.02125 -4 5 C-3.505 6.485 -3.505 6.485 -3 8 C-1.80375 8.020625 -0.6075 8.04125 0.625 8.0625 C11.93459757 9.28321847 22.49474477 16.85143718 30 25 C30 25.66 30 26.32 30 27 C25.56025219 24.99776079 21.7297106 22.08253836 17.77734375 19.27734375 C9.96643245 13.78614624 4.59423948 13.18784655 -5 14 C-17.66201584 16.85004137 -29.08795459 32.89008838 -35.65234375 43.06640625 C-41.05242096 51.62593441 -45.86172849 60.37679783 -50.28125 69.4765625 C-56.19354839 81.59677419 -56.19354839 81.59677419 -59 83 C-62.03867255 83.25861043 -64.19562977 83.41515883 -66.9375 82 C-68.68746456 78.70594905 -67.82682639 75.48836243 -67 72 C-65.55896859 68.1979914 -63.80473085 64.57868726 -62 60.9375 C-61.25786255 59.41829956 -61.25786255 59.41829956 -60.50073242 57.8684082 C-54.46986645 45.68367642 -47.94647173 34.31089502 -39 24 C-38.29101562 23.15824219 -37.58203125 22.31648438 -36.8515625 21.44921875 C-27.44714109 10.57638768 -15.28287139 -0.7689495 0 0 Z " fill="#3A4955" transform="translate(210,241)"/>
<path d="M0 0 C1.6788863 1.31791363 3.34770891 2.64889315 5 4 C7.18214568 4.77833534 7.18214568 4.77833534 9 5 C9 5.66 9 6.32 9 7 C9.639375 7.268125 10.27875 7.53625 10.9375 7.8125 C13 9 13 9 14 12 C15.65 12.33 17.3 12.66 19 13 C18.67 13.66 18.34 14.32 18 15 C17.01 14.34 16.02 13.68 15 13 C15.27774543 16.43877416 15.57458285 19.87563818 15.875 23.3125 C15.95363281 24.28896484 16.03226563 25.26542969 16.11328125 26.27148438 C16.19707031 27.20927734 16.28085938 28.14707031 16.3671875 29.11328125 C16.44050293 29.97735596 16.51381836 30.84143066 16.58935547 31.73168945 C16.89393458 34.27164237 16.89393458 34.27164237 19 37 C15.29986462 35.36628867 12.36440579 33.04611441 9.1875 30.5625 C4.9581825 27.30069451 0.99428122 24.88672846 -4 23 C-4.495 22.01 -4.495 22.01 -5 21 C-9.7692098 18.96024565 -14.2728613 18.59643097 -19.375 18.375 C-20.11105469 18.33632812 -20.84710938 18.29765625 -21.60546875 18.2578125 C-23.40327406 18.16442002 -25.20160108 18.0811629 -27 18 C-27 17.34 -27 16.68 -27 16 C-27.5775 15.7525 -28.155 15.505 -28.75 15.25 C-31.32939979 13.81700012 -33.06121592 12.21575324 -35 10 C-35 9.34 -35 8.68 -35 8 C-35.61875 7.7525 -36.2375 7.505 -36.875 7.25 C-39.35068687 5.79371361 -39.95125002 4.62187494 -41 2 C-41.66 2 -42.32 2 -43 2 C-43 1.01 -43 0.02 -43 -1 C-31.20025873 -8.86649418 -11.81284093 -6.58193483 0 0 Z " fill="#8CA485" transform="translate(229,209)"/>
<path d="M0 0 C13.97260737 -1.24200954 25.78545534 8.06305984 35.9375 16.5 C48.88534842 27.26885403 48.88534842 27.26885403 65.046875 29.8203125 C66.70601419 29.60130613 68.35513274 29.30841261 70 29 C70 30.65 70 32.3 70 34 C72.80764728 34.77426109 72.80764728 34.77426109 76 35 C77.35335895 34.02727325 78.68662604 33.0260734 80 32 C83.25 31.8125 83.25 31.8125 86 32 C86 31.34 86 30.68 86 30 C86.66 30 87.32 30 88 30 C88.37125 28.88625 88.37125 28.88625 88.75 27.75 C90.10494919 24.76911179 91.66969785 23.25748021 94 21 C95.23512079 18.86690808 95.23512079 18.86690808 96 17 C97.485 17.495 97.485 17.495 99 18 C99.0825 17.4225 99.165 16.845 99.25 16.25 C100.20918964 13.37243109 101.83980195 12.0947375 104 10 C105.23512079 7.86690808 105.23512079 7.86690808 106 6 C106.66 6 107.32 6 108 6 C103.05585263 19.63902723 89.83185418 32.91880191 77.31640625 39.94921875 C68.36171017 44.01129842 58.69935066 44.57993708 49.3125 41.4375 C42.51033594 38.61586157 34.83634804 34.69782253 30 29 C29.505 27.515 29.505 27.515 29 26 C27.67151309 24.99357052 26.33849671 23.99307821 25 23 C25 22.34 25 21.68 25 21 C24.43023437 20.72027344 23.86046875 20.44054687 23.2734375 20.15234375 C21.02174299 19.01102093 18.82446528 17.80114624 16.625 16.5625 C15.83222656 16.12550781 15.03945312 15.68851563 14.22265625 15.23828125 C12.48628387 14.27091737 10.77009954 13.26729334 9.0625 12.25 C4.78713565 10.50495333 0.58019287 10.26250117 -4 10 C-4.33 9.01 -4.66 8.02 -5 7 C-6.65 7 -8.3 7 -10 7 C-10 6.01 -10 5.02 -10 4 C-7.69 3.34 -5.38 2.68 -3 2 C-3 2.66 -3 3.32 -3 4 C-2.34 3.67 -1.68 3.34 -1 3 C-0.67 2.01 -0.34 1.02 0 0 Z " fill="#41505F" transform="translate(210,240)"/>
<path d="M0 0 C0.99 0 1.98 0 3 0 C3 0.66 3 1.32 3 2 C3.66 2 4.32 2 5 2 C7.24828052 6.49656104 7.16682272 10.07872966 7 15 C7.66 15.33 8.32 15.66 9 16 C8.67 16.66 8.34 17.32 8 18 C8.93446535 20.03144641 9.93224776 22.03533587 11 24 C11.66 24 12.32 24 13 24 C13 24.66 13 25.32 13 26 C13.66 26 14.32 26 15 26 C16.03621277 28.72418835 17.05411937 31.45302216 18.0625 34.1875 C18.50432617 35.34088867 18.50432617 35.34088867 18.95507812 36.51757812 C20.47736587 40.69043747 21.53759488 43.61565802 20 48 C17.8515625 48.765625 17.8515625 48.765625 15 49 C12.2109375 47.234375 12.2109375 47.234375 9.375 44.75 C8.43398438 43.94046875 7.49296875 43.1309375 6.5234375 42.296875 C4.62628109 40.57005151 2.78331953 38.84135656 1 37 C-1.59534707 34.33976926 -3.90109671 32.06593552 -7 30 C-6.65954675 21.50569131 -4.74341572 14.026086 -2 6 C-2.66 6 -3.32 6 -4 6 C-3.34 4.68 -2.68 3.36 -2 2 C-1.34 2 -0.68 2 0 2 C0 1.34 0 0.68 0 0 Z " fill="#586F84" transform="translate(345,144)"/>
<path d="M0 0 C0.495 1.485 0.495 1.485 1 3 C0.44570312 3.54269531 -0.10859375 4.08539063 -0.6796875 4.64453125 C-1.40414062 5.35996094 -2.12859375 6.07539063 -2.875 6.8125 C-3.59429687 7.52019531 -4.31359375 8.22789062 -5.0546875 8.95703125 C-7.15358937 11.04399194 -7.15358937 11.04399194 -9 14 C-9.66 14 -10.32 14 -11 14 C-10.67 15.32 -10.34 16.64 -10 18 C-11.65 18.66 -13.3 19.32 -15 20 C-15 20.99 -15 21.98 -15 23 C-15.66 23 -16.32 23 -17 23 C-17.103125 23.78375 -17.20625 24.5675 -17.3125 25.375 C-18 28 -18 28 -21 30 C-22.21284876 33.05429073 -22.21284876 33.05429073 -23 36 C-23.66 36 -24.32 36 -25 36 C-24.55296014 40.47883696 -24.55296014 40.47883696 -22 44 C-21.87625 43.44570313 -21.7525 42.89140625 -21.625 42.3203125 C-20.95585396 39.96993703 -20.30065582 38.07596532 -19 36 C-16.26345587 34.65061926 -14.07885104 34.40378374 -11 34 C-12.71283867 38.77891452 -15.18867771 43.03988931 -17.6875 47.4375 C-21.58173465 54.3435493 -25.2147532 61.3160566 -28.625 68.47265625 C-30 71 -30 71 -32 72 C-35.03867255 72.25861043 -37.19562977 72.41515883 -39.9375 71 C-41.68746456 67.70594905 -40.82682639 64.48836243 -40 61 C-38.55896859 57.1979914 -36.80473085 53.57868726 -35 49.9375 C-34.25786255 48.41829956 -34.25786255 48.41829956 -33.50073242 46.8684082 C-24.75906709 29.20679081 -14.13282843 13.8653301 0 0 Z " fill="#3A414E" transform="translate(183,252)"/>
<path d="M0 0 C4.76210459 0.47621046 7.26158933 1.57759737 10.875 4.6875 C11.72578125 5.40292969 12.5765625 6.11835938 13.453125 6.85546875 C14.71382812 7.91701172 14.71382812 7.91701172 16 9 C17.53232873 10.17890452 19.07305178 11.34704556 20.625 12.5 C21.27726562 12.9846875 21.92953125 13.469375 22.6015625 13.96875 C23.06304687 14.3090625 23.52453125 14.649375 24 15 C23.01 15.495 23.01 15.495 22 16 C22 38.44 22 60.88 22 84 C25.96 84 29.92 84 34 84 C34 84.33 34 84.66 34 85 C30.08339894 85.05906707 26.16691543 85.09394858 22.25 85.125 C21.15816406 85.14175781 20.06632812 85.15851563 18.94140625 85.17578125 C11.42643067 85.22024856 4.36728019 84.47778777 -3 83 C-3 82.67 -3 82.34 -3 82 C-0.45805839 82.14188985 2.08347993 82.28839155 4.625 82.4375 C5.33785156 82.47681641 6.05070313 82.51613281 6.78515625 82.55664062 C7.48769531 82.59853516 8.19023437 82.64042969 8.9140625 82.68359375 C9.5529541 82.72025146 10.1918457 82.75690918 10.85009766 82.79467773 C13.59339675 83.05667121 16.28636719 83.52519874 19 84 C19.02505615 82.79802979 19.0501123 81.59605957 19.07592773 80.35766602 C20.00043013 36.3525138 20.00043013 36.3525138 21 15 C20.38125 14.855625 19.7625 14.71125 19.125 14.5625 C17 14 17 14 15 13 C14.67 13.99 14.34 14.98 14 16 C11.525 15.01 11.525 15.01 9 14 C8.67 11.69 8.34 9.38 8 7 C7.01 6.67 6.02 6.34 5 6 C4.67 6.66 4.34 7.32 4 8 C2.68 5.36 1.36 2.72 0 0 Z " fill="#929575" transform="translate(223,270)"/>
<path d="M0 0 C2.56695636 0.39491636 4.67123994 0.83561997 7 2 C7.44921875 3.8125 7.44921875 3.8125 7.6875 6 C7.77386719 6.721875 7.86023438 7.44375 7.94921875 8.1875 C7.97435547 9.0846875 7.97435547 9.0846875 8 10 C7.67 10.33 7.34 10.66 7 11 C7.33 11.99 7.66 12.98 8 14 C7 15.33333333 6 16.66666667 5 18 C4.27359045 20.31543043 3.61568542 22.65269935 3 25 C0.69518545 33.34453944 0.69518545 33.34453944 -2.1875 36.0625 C-2.785625 36.371875 -3.38375 36.68125 -4 37 C-4.66 36.34 -5.32 35.68 -6 35 C-6 32.37886292 -5.68707555 30.49064888 -5 28 C-5.66 27.67 -6.32 27.34 -7 27 C-6.34 27 -5.68 27 -5 27 C-4.7834375 25.63875 -4.7834375 25.63875 -4.5625 24.25 C-4.26006563 22.50260141 -3.93720489 20.75548243 -3.49609375 19.0378418 C-2.50551611 14.96877113 -2.21572518 10.73885843 -1.75 6.58007812 C-1.10531804 1.10531804 -1.10531804 1.10531804 0 0 Z " fill="#4C6277" transform="translate(332,175)"/>
<path d="M0 0 C0.33 0 0.66 0 1 0 C0.912261 3.00127895 0.80528288 5.99986996 0.6875 9 C0.66494141 9.83917969 0.64238281 10.67835938 0.61914062 11.54296875 C0.37248552 17.3281522 -0.79665411 21.65306293 -3 27 C-3.15597656 27.83660156 -3.31195313 28.67320312 -3.47265625 29.53515625 C-4.23245656 33.0865192 -5.85080898 36.19625541 -7.4375 39.4375 C-9.17681317 43.01295408 -10.82629076 46.4525527 -12.03125 50.25 C-13.02097053 53.05952924 -14.0018531 54.46134898 -16.0625 56.5625 C-18.65899069 59.39048504 -19.3482785 61.19829123 -20 65 C-21.31647119 65.69937532 -22.65022151 66.36729133 -24 67 C-24.61067144 68.85744207 -24.61067144 68.85744207 -25 71 C-26.3125 73.6875 -26.3125 73.6875 -28 76 C-30.10546875 76.64453125 -30.10546875 76.64453125 -32 77 C-31.43345703 76.17435547 -31.43345703 76.17435547 -30.85546875 75.33203125 C-15.36100018 51.92703774 -6.73095028 27.04303509 0 0 Z " fill="#555E68" transform="translate(330,176)"/>
<path d="M0 0 C6.14878328 -0.68319814 9.13006363 -0.39114425 14.0625 3.5 C15.39291077 4.64620005 16.71197403 5.80636837 18 7 C17.01 7 16.02 7 15 7 C14.79955078 7.73822998 14.59910156 8.47645996 14.39257812 9.23706055 C10.8909952 22.04146002 7.34936018 34.77065856 2.625 47.1875 C2.29177734 48.07074951 1.95855469 48.95399902 1.61523438 49.86401367 C-0.73588751 55.86794375 -0.73588751 55.86794375 -3 57 C-3.25 50.375 -3.25 50.375 -1 47 C-0.33841957 44.95415921 -0.33841957 44.95415921 0.125 42.8125 C0.558125 40.9253125 0.558125 40.9253125 1 39 C1.66 39 2.32 39 3 39 C4.92018749 33.70348284 5.7111246 28.58799187 6.4375 23.0234375 C6.94649602 20.28758389 7.60596273 18.38148034 9 16 C9.66 16 10.32 16 11 16 C10.34 14.68 9.68 13.36 9 12 C9.33 11.67 9.66 11.34 10 11 C10.04092937 8.66702567 10.04241723 6.33294775 10 4 C7.36 3.67 4.72 3.34 2 3 C2 2.34 2 1.68 2 1 C1.34 0.67 0.68 0.34 0 0 Z " fill="#515863" transform="translate(329,173)"/>
<path d="M0 0 C3.39612414 0.1395053 6.79181458 0.28772322 10.1875 0.4375 C11.14720703 0.47681641 12.10691406 0.51613281 13.09570312 0.55664062 C14.02705078 0.59853516 14.95839844 0.64042969 15.91796875 0.68359375 C16.77156982 0.72025146 17.6251709 0.75690918 18.50463867 0.79467773 C21.06454594 1.00531094 23.49333243 1.44841536 26 2 C26 2.66 26 3.32 26 4 C23 6 23 6 20 7 C20 6.34 20 5.68 20 5 C18.64455078 4.90912109 18.64455078 4.90912109 17.26171875 4.81640625 C15.49248047 4.69072266 15.49248047 4.69072266 13.6875 4.5625 C12.51574219 4.48128906 11.34398437 4.40007812 10.13671875 4.31640625 C7 4 7 4 4 3 C4 32.37 4 61.74 4 92 C3.34 91.67 2.68 91.34 2 91 C2.33 61.3 2.66 31.6 3 1 C2.01 0.67 1.02 0.34 0 0 Z " fill="#40596C" transform="translate(241,128)"/>
<path d="M0 0 C0.33 0 0.66 0 1 0 C1 1.98 1 3.96 1 6 C2.94999129 5.80528889 2.94999129 5.80528889 5 5 C6.28436734 3.0162233 6.28436734 3.0162233 7 1 C7.66 1 8.32 1 9 1 C8.40948091 5.15634588 6.95473968 8.06488368 4.875 11.6875 C1.83146613 17.53543293 1.45357488 21.6455986 3 28 C3.66 28 4.32 28 5 28 C6.17571451 31.67410785 6.07366746 35.16929183 6 39 C-1.07053017 28.39420474 -3.01647632 13.36364774 -1 1 C-0.67 0.67 -0.34 0.34 0 0 Z " fill="#455150" transform="translate(133,250)"/>
<path d="M0 0 C2.375 0.8125 2.375 0.8125 4.375 2.8125 C5.97631771 6.71638697 7.2354462 10.74567885 8.5625 14.75 C8.94341797 15.86052734 9.32433594 16.97105469 9.71679688 18.11523438 C10.07193359 19.17935547 10.42707031 20.24347656 10.79296875 21.33984375 C11.12063232 22.31687256 11.4482959 23.29390137 11.78588867 24.30053711 C12.375 26.8125 12.375 26.8125 11.375 29.8125 C11.375 29.1525 11.375 28.4925 11.375 27.8125 C10.385 28.1425 9.395 28.4725 8.375 28.8125 C7.87096232 27.52240357 7.37190074 26.23036211 6.875 24.9375 C6.5965625 24.21820313 6.318125 23.49890625 6.03125 22.7578125 C5.375 20.8125 5.375 20.8125 5.375 18.8125 C5.05677023 16.60193966 4.72109709 14.39386897 4.375 12.1875 C4.189375 10.99898437 4.00375 9.81046875 3.8125 8.5859375 C3.668125 7.67070312 3.52375 6.75546875 3.375 5.8125 C2.715 5.8125 2.055 5.8125 1.375 5.8125 C1.375 5.1525 1.375 4.4925 1.375 3.8125 C0.385 3.8125 -0.605 3.8125 -1.625 3.8125 C-1.625 4.4725 -1.625 5.1325 -1.625 5.8125 C-3.605 6.8025 -3.605 6.8025 -5.625 7.8125 C-5.295 6.4925 -4.965 5.1725 -4.625 3.8125 C-5.285 3.4825 -5.945 3.1525 -6.625 2.8125 C-4.2650337 0.62734602 -3.28118881 -0.23437063 0 0 Z " fill="#5C5F68" transform="translate(346.625,140.1875)"/>
<path d="M0 0 C5.22953714 5.22953714 3.18338627 17.91456054 3.1875 24.875 C3.19974609 25.98875 3.21199219 27.1025 3.22460938 28.25 C3.22750977 29.85488281 3.22750977 29.85488281 3.23046875 31.4921875 C3.23457764 32.45495605 3.23868652 33.41772461 3.24291992 34.40966797 C3 37 3 37 1 41 C1 32.42 1 23.84 1 15 C-0.98 15.99 -2.96 16.98 -5 18 C-4.44179226 11.38964515 -3.76419087 5.6462863 0 0 Z " fill="#E0CEB0" transform="translate(354,219)"/>
<path d="M0 0 C-0.33 0.66 -0.66 1.32 -1 2 C-1.86625 2.185625 -1.86625 2.185625 -2.75 2.375 C-5.20090767 2.88780598 -5.20090767 2.88780598 -7.375 5 C-10.34885267 7.26579251 -12.36007413 7.50364647 -16 8 C-16.33 8.66 -16.66 9.32 -17 10 C-18.65 10 -20.3 10 -22 10 C-22.33 10.66 -22.66 11.32 -23 12 C-23.639375 12.309375 -24.27875 12.61875 -24.9375 12.9375 C-27.31971493 13.95345922 -27.31971493 13.95345922 -29 17 C-29.99 17 -30.98 17 -32 17 C-32 16.01 -32 15.02 -32 14 C-25.53346058 8.90649292 -17.85887388 5.28230548 -10.375 1.9375 C-9.68857422 1.62651367 -9.00214844 1.31552734 -8.29492188 0.99511719 C-3.37038901 -1.123463 -3.37038901 -1.123463 0 0 Z " fill="#434751" transform="translate(209,135)"/>
<path d="M0 0 C0.33 0.66 0.66 1.32 1 2 C1.66 2 2.32 2 3 2 C4.36176922 3.64351457 5.68962066 5.31522656 7 7 C9.49529455 9.62325838 11.95323145 11.96362446 14.8125 14.1875 C15.534375 14.785625 16.25625 15.38375 17 16 C17 16.66 17 17.32 17 18 C18.61068359 17.94779297 18.61068359 17.94779297 20.25390625 17.89453125 C21.69008839 17.86637082 23.12628762 17.83907309 24.5625 17.8125 C25.26697266 17.78736328 25.97144531 17.76222656 26.69726562 17.73632812 C31.88003315 17.66467696 35.36264182 18.67827402 40 21 C38 22 38 22 35.1875 21.0625 C27.81825304 18.77122153 19.47374041 19.59516158 12 21 C12 18 12 18 13 15 C12.443125 14.7525 11.88625 14.505 11.3125 14.25 C7.28164326 12.07115852 4.21844724 9.37321321 1.375 5.8125 C-0.75800103 2.79133392 -0.75800103 2.79133392 -4 2 C-2.68 1.34 -1.36 0.68 0 0 Z " fill="#74856B" transform="translate(185,209)"/>
<path d="M0 0 C0.33 0.99 0.66 1.98 1 3 C0.44570312 3.54269531 -0.10859375 4.08539063 -0.6796875 4.64453125 C-1.76636719 5.71767578 -1.76636719 5.71767578 -2.875 6.8125 C-3.59429687 7.52019531 -4.31359375 8.22789062 -5.0546875 8.95703125 C-7.15358937 11.04399194 -7.15358937 11.04399194 -9 14 C-9.66 14 -10.32 14 -11 14 C-10.67 15.32 -10.34 16.64 -10 18 C-11.65 18.66 -13.3 19.32 -15 20 C-15 20.99 -15 21.98 -15 23 C-15.66 23 -16.32 23 -17 23 C-17.061875 23.721875 -17.12375 24.44375 -17.1875 25.1875 C-18.2553751 28.88399074 -20.10819816 30.53138868 -23 33 C-23.66 33 -24.32 33 -25 33 C-20.38631589 20.062659 -9.52443192 9.52443192 0 0 Z " fill="#383A42" transform="translate(183,252)"/>
<path d="M0 0 C0.33 0 0.66 0 1 0 C1 13.86 1 27.72 1 42 C4.96 42 8.92 42 13 42 C13 42.33 13 42.66 13 43 C9.08339894 43.05906707 5.16691543 43.09394858 1.25 43.125 C0.15816406 43.14175781 -0.93367188 43.15851563 -2.05859375 43.17578125 C-9.57356933 43.22024856 -16.63271981 42.47778777 -24 41 C-24 40.67 -24 40.34 -24 40 C-21.45805839 40.14188985 -18.91652007 40.28839155 -16.375 40.4375 C-15.66214844 40.47681641 -14.94929687 40.51613281 -14.21484375 40.55664062 C-10.08196318 40.80309681 -6.07730976 41.23470053 -2 42 C-2 39.36 -2 36.72 -2 34 C-1.67 34 -1.34 34 -1 34 C-0.67 22.78 -0.34 11.56 0 0 Z " fill="#AF997B" transform="translate(244,312)"/>
<path d="M0 0 C0 0.66 0 1.32 0 2 C-2 3.625 -2 3.625 -4 5 C-3.34 5.66 -2.68 6.32 -2 7 C-3.98 7 -5.96 7 -8 7 C-8.061875 7.721875 -8.12375 8.44375 -8.1875 9.1875 C-9.24654271 12.85341706 -11.29599272 14.36194411 -14 17 C-15.319018 19.66533035 -15.319018 19.66533035 -16 22 C-16.33 21.01 -16.66 20.02 -17 19 C-17.99 18.67 -18.98 18.34 -20 18 C-7.36170213 0 -7.36170213 0 0 0 Z " fill="#434752" transform="translate(175,153)"/>
<path d="M0 0 C0.66 0.33 1.32 0.66 2 1 C2.4375 3.5 2.4375 3.5 2 7 C0.35021471 9.17010219 -1.4325444 11.05760447 -3.37109375 12.97265625 C-5.26321126 15.32759387 -5.49178866 17.06915015 -6 20 C-7.31647119 20.69937532 -8.65022151 21.36729133 -10 22 C-10.61067144 23.85744207 -10.61067144 23.85744207 -11 26 C-12.3125 28.6875 -12.3125 28.6875 -14 31 C-16.10546875 31.64453125 -16.10546875 31.64453125 -18 32 C-17.43345703 31.17435547 -17.43345703 31.17435547 -16.85546875 30.33203125 C-10.44916479 20.65506157 -5.28784171 10.31567274 0 0 Z " fill="#4D535F" transform="translate(316,221)"/>
<path d="M0 0 C0.5534764 2.07553648 1 3.84365964 1 6 C1.66 6 2.32 6 3 6 C3.33 7.65 3.66 9.3 4 11 C3.34 11 2.68 11 2 11 C2 11.99 2 12.98 2 14 C1.01 14 0.02 14 -1 14 C-1 14.66 -1 15.32 -1 16 C0.65 15.67 2.3 15.34 4 15 C4.33 15.99 4.66 16.98 5 18 C3.68 18.33 2.36 18.66 1 19 C1 18.34 1 17.68 1 17 C-0.32 16.67 -1.64 16.34 -3 16 C-2.34 17.32 -1.68 18.64 -1 20 C-4.72 18.56 -4.72 18.56 -5.8125 16.375 C-6.09706168 12.77055202 -4.54642347 9.94514375 -3.0625 6.75 C-2.77181641 6.1003125 -2.48113281 5.450625 -2.18164062 4.78125 C-1.46471025 3.18284785 -0.73371051 1.59076946 0 0 Z " fill="#809170" transform="translate(171,307)"/>
<path d="M0 0 C1.125 1.6875 1.125 1.6875 2 4 C1.25 6.5 1.25 6.5 0 9 C-0.2475 9.7425 -0.495 10.485 -0.75 11.25 C-2 13 -2 13 -5 13.8125 C-8 14 -8 14 -10 13 C-8.84814708 7.55487713 -7.66990947 5.07530624 -3 2 C-2.01 1.34 -1.02 0.68 0 0 Z " fill="#354551" transform="translate(154,307)"/>
<path d="M0 0 C2.65480782 2.65480782 3.40063201 5.29112771 4.6875 8.8125 C5.14511719 10.03582031 5.60273438 11.25914062 6.07421875 12.51953125 C6.98567703 15.94615288 7.04648957 17.67026045 6 21 C3.859375 21.76953125 3.859375 21.76953125 1 22 C-1.859375 20.19921875 -1.859375 20.19921875 -4.75 17.6875 C-6.19632812 16.45580078 -6.19632812 16.45580078 -7.671875 15.19921875 C-10 13 -10 13 -11 11 C-8.50638429 12.20381448 -6.31856917 13.45428722 -4 15 C-2.34450469 15.38499891 -0.6777567 15.72793135 1 16 C1.33 16.99 1.66 17.98 2 19 C3.41681387 13.97675081 2.52626952 10.83844675 0.69140625 6.1484375 C0 4 0 4 0 0 Z " fill="#565965" transform="translate(359,171)"/>
<path d="M0 0 C0.99 0.33 1.98 0.66 3 1 C1.73684896 8.89579817 -0.65239619 16.10687278 -3.5 23.5625 C-3.90347656 24.65369141 -4.30695313 25.74488281 -4.72265625 26.86914062 C-7.74436564 34.87218282 -7.74436564 34.87218282 -10 36 C-10.25 29.375 -10.25 29.375 -8 26 C-7.33841957 23.95415921 -7.33841957 23.95415921 -6.875 21.8125 C-6.441875 19.9253125 -6.441875 19.9253125 -6 18 C-5.34 18 -4.68 18 -4 18 C-1.73524435 12.17634262 -0.93451186 6.1439184 0 0 Z " fill="#4D525D" transform="translate(336,194)"/>
<path d="M0 0 C-1.269553 0.64834654 -2.54069706 1.29357815 -3.8125 1.9375 C-4.52019531 2.29714844 -5.22789062 2.65679687 -5.95703125 3.02734375 C-13.24224838 6.49583145 -22.72424216 6.04444453 -30.3125 3.625 C-33.83144796 2.33710407 -33.83144796 2.33710407 -35 0 C-28.59641256 -0.25112108 -28.59641256 -0.25112108 -25.625 1 C-21.81003705 2.45331922 -18.04336838 2.34158122 -14 2 C-13.34 1.67 -12.68 1.34 -12 1 C-9.99199544 1.28112064 -7.98985949 1.61067967 -6 2 C-6 1.34 -6 0.68 -6 0 C-3.50907189 -1.24546405 -2.58919267 -0.7767578 0 0 Z " fill="#474752" transform="translate(290,278)"/>
<path d="M0 0 C3.39612414 0.1395053 6.79181458 0.28772322 10.1875 0.4375 C11.14720703 0.47681641 12.10691406 0.51613281 13.09570312 0.55664062 C14.02705078 0.59853516 14.95839844 0.64042969 15.91796875 0.68359375 C16.77156982 0.72025146 17.6251709 0.75690918 18.50463867 0.79467773 C21.06454594 1.00531094 23.49333243 1.44841536 26 2 C26 2.66 26 3.32 26 4 C23 6 23 6 20 7 C20 6.34 20 5.68 20 5 C19.14277344 4.96261719 18.28554688 4.92523438 17.40234375 4.88671875 C10.94801388 4.51561297 5.73004075 4.06490552 0 1 C0 0.67 0 0.34 0 0 Z " fill="#595E6A" transform="translate(241,128)"/>
<path d="M0 0 C1.33333333 0 2.66666667 0 4 0 C4.08636719 0.60328125 4.17273438 1.2065625 4.26171875 1.828125 C4.40222656 2.62734375 4.54273438 3.4265625 4.6875 4.25 C4.81511719 5.03890625 4.94273437 5.8278125 5.07421875 6.640625 C6.38337674 9.97704452 7.95163451 11.14447318 11 13 C14.56910296 13.69306366 14.56910296 13.69306366 18.3125 13.75 C20.19388672 13.83507812 20.19388672 13.83507812 22.11328125 13.921875 C23.06589844 13.94765625 24.01851563 13.9734375 25 14 C25 14.33 25 14.66 25 15 C21.37 15.33 17.74 15.66 14 16 C14 16.66 14 17.32 14 18 C13.34 18 12.68 18 12 18 C11.34 19.32 10.68 20.64 10 22 C9.938125 20.948125 9.87625 19.89625 9.8125 18.8125 C8.85613815 14.32495595 7.43141143 12.92925366 4 10 C3.34 9.34 2.68 8.68 2 8 C1.67 8 1.34 8 1 8 C0.67 5.36 0.34 2.72 0 0 Z " fill="#515C69" transform="translate(288,168)"/>
<path d="M0 0 C0.66 0.33 1.32 0.66 2 1 C2 1.66 2 2.32 2 3 C3.65 3.33 5.3 3.66 7 4 C6.67 4.66 6.34 5.32 6 6 C5.01 5.34 4.02 4.68 3 4 C3.27774543 7.43877416 3.57458285 10.87563818 3.875 14.3125 C3.95363281 15.28896484 4.03226563 16.26542969 4.11328125 17.27148438 C4.19707031 18.20927734 4.28085938 19.14707031 4.3671875 20.11328125 C4.44050293 20.97735596 4.51381836 21.84143066 4.58935547 22.73168945 C4.89393458 25.27164237 4.89393458 25.27164237 7 28 C3.7173068 26.50923566 1.06922559 24.61379679 -1.75 22.375 C-2.54921875 21.74335938 -3.3484375 21.11171875 -4.171875 20.4609375 C-4.77515625 19.97882813 -5.3784375 19.49671875 -6 19 C-3 19 -3 19 0 20 C0 20.66 0 21.32 0 22 C0.66 22 1.32 22 2 22 C1.67 16.39 1.34 10.78 1 5 C0.34 4.67 -0.32 4.34 -1 4 C-0.67 2.68 -0.34 1.36 0 0 Z " fill="#868D78" transform="translate(241,218)"/>
<path d="M0 0 C0.33 0 0.66 0 1 0 C1.53370338 4.40305286 0.18879705 6.73972951 -2.04296875 10.3515625 C-3.11075168 12.19076412 -3.66418002 13.90112512 -4 16 C-4.66 16 -5.32 16 -6 16 C-6.12375 17.03125 -6.2475 18.0625 -6.375 19.125 C-6.94205364 22.64073257 -7.87884907 25.63654722 -9 29 C-9.37531446 31.32694964 -9.71917202 33.65976685 -10 36 C-10.66 36 -11.32 36 -12 36 C-11.93888496 23.28807177 -5.96217473 10.97462251 0 0 Z " fill="#35383C" transform="translate(144,186)"/>
<path d="M0 0 C0 3 0 3 -1.3125 4.38671875 C-2.875 5.59114583 -4.4375 6.79557292 -6 8 C-3.00617439 11.58834417 0.00869795 15.06642302 3.375 18.3125 C6 21 6 21 6 23 C1.42185153 21.13407312 -0.87122794 17.76239074 -3.90234375 13.99609375 C-6.33691482 11.67939763 -7.68910755 11.26360609 -11 11 C-14.22111592 11.38333662 -14.22111592 11.38333662 -17 12 C-13.31054971 9.12376961 -9.38467053 6.83565937 -5.33984375 4.5 C-3.24250642 3.15546321 -1.66632184 1.8356857 0 0 Z " fill="#7C8F71" transform="translate(302,282)"/>
<path d="M0 0 C5.10451526 2.96061885 9.8830885 6.75770033 14 11 C14 11.66 14 12.32 14 13 C9.56025219 10.99776079 5.7297106 8.08253836 1.77734375 5.27734375 C-3.26791764 1.73044305 -6.87455096 -0.16471149 -13 -1 C-13 -1.66 -13 -2.32 -13 -3 C-8.18091547 -4.60636151 -4.44424286 -2.07909634 0 0 Z " fill="#3F424A" transform="translate(226,255)"/>
<path d="M0 0 C-22.98385519 8.47896282 -22.98385519 8.47896282 -34 8 C-34 7.67 -34 7.34 -34 7 C-29.9472484 6.01751476 -26.16138263 5.91840426 -22 6 C-22 5.34 -22 4.68 -22 4 C-23.32 3.67 -24.64 3.34 -26 3 C-21.70700357 1.73735399 -19.12168689 2.37049588 -15 4 C-15 2.68 -15 1.36 -15 0 C-14.06027344 0.01740234 -14.06027344 0.01740234 -13.1015625 0.03515625 C-11.87566406 0.04869141 -11.87566406 0.04869141 -10.625 0.0625 C-9.40683594 0.07990234 -9.40683594 0.07990234 -8.1640625 0.09765625 C-0.78451883 -0.23535565 -0.78451883 -0.23535565 0 0 Z " fill="#BEA085" transform="translate(291,346)"/>
<path d="M0 0 C1.485 0.99 1.485 0.99 3 2 C3 2.66 3 3.32 3 4 C3.66 4 4.32 4 5 4 C5 4.66 5 5.32 5 6 C5.66 6 6.32 6 7 6 C7 6.66 7 7.32 7 8 C7.66 8 8.32 8 9 8 C9 8.66 9 9.32 9 10 C9.99 10.33 10.98 10.66 12 11 C12 11.66 12 12.32 12 13 C12.66 13 13.32 13 14 13 C14 13.66 14 14.32 14 15 C15.32 15.66 16.64 16.32 18 17 C16.02 18.98 14.04 20.96 12 23 C11.34 22.67 10.68 22.34 10 22 C11.32 20.68 12.64 19.36 14 18 C12.95125002 15.37812506 12.35068687 14.20628639 9.875 12.75 C9.25625 12.5025 8.6375 12.255 8 12 C8 11.34 8 10.68 8 10 C7.34 10 6.68 10 6 10 C6 9.34 6 8.68 6 8 C5.38125 7.71125 4.7625 7.4225 4.125 7.125 C2 6 2 6 0 4 C0 2.68 0 1.36 0 0 Z " fill="#C2AC88" transform="translate(309,304)"/>
<path d="M0 0 C4.90309685 0.47449324 7.58007203 1.76384284 11.375 4.875 C12.24898437 5.57367188 13.12296875 6.27234375 14.0234375 6.9921875 C16 9 16 9 16 12 C15.34 12 14.68 12 14 12 C14 11.34 14 10.68 14 10 C12.68 9.67 11.36 9.34 10 9 C10 8.34 10 7.68 10 7 C8.35 6.67 6.7 6.34 5 6 C4.67 6.66 4.34 7.32 4 8 C2.68 5.36 1.36 2.72 0 0 Z " fill="#8C977F" transform="translate(223,270)"/>
<path d="M0 0 C-2.80361347 2.95973115 -5.68529564 5.28556131 -9.0625 7.5625 C-11.97882022 9.53156433 -14.60372846 11.41516938 -17 14 C-14.00359712 4.58273381 -14.00359712 4.58273381 -11.0625 2.875 C-10.381875 2.58625 -9.70125 2.2975 -9 2 C-5.5647952 -0.29013653 -4.014669 -0.17842973 0 0 Z " fill="#545F6D" transform="translate(309,152)"/>
<path d="M0 0 C1.94326172 0.16242188 1.94326172 0.16242188 3.92578125 0.328125 C13.18773798 1.36684912 13.18773798 1.36684912 15.5625 3.1875 C16.6875 4.75 16.6875 4.75 16.6875 6.75 C14.00983677 6.27747119 11.58146297 5.71008018 9.03125 4.75 C5.07205189 3.56594075 1.41951141 3.30324281 -2.6875 3.125 C-3.42355469 3.08632812 -4.15960938 3.04765625 -4.91796875 3.0078125 C-6.71577406 2.91442002 -8.51410108 2.8311629 -10.3125 2.75 C-7.55657934 -1.25485849 -4.49330932 -0.4088867 0 0 Z " fill="#9DA88E" transform="translate(212.3125,224.25)"/>
<path d="M0 0 C6.08878192 0.54660656 11.28645567 1.92858526 17 4.0625 C18.16208984 4.48499023 18.16208984 4.48499023 19.34765625 4.91601562 C21.23450967 5.60320298 23.11766151 6.30054013 25 7 C25 7.66 25 8.32 25 9 C19.555 8.505 19.555 8.505 14 8 C13.67 7.01 13.34 6.02 13 5 C10.23824324 4.04111709 10.23824324 4.04111709 7 3.4375 C4.9867877 3.01728941 2.98165277 2.55013907 1 2 C0.67 1.34 0.34 0.68 0 0 Z " fill="#555C69" transform="translate(268,131)"/>
<path d="M0 0 C7.94362584 0.18954422 13.97149263 2.37884886 21 6 C20.67 6.66 20.34 7.32 20 8 C18.7625 7.5359375 18.7625 7.5359375 17.5 7.0625 C13.60873845 5.88122417 10.03833047 5.41775832 6 5 C6 4.34 6 3.68 6 3 C4.35 3 2.7 3 1 3 C0.67 2.01 0.34 1.02 0 0 Z " fill="#434650" transform="translate(211,240)"/>
<path d="M0 0 C1.16144531 0.00902344 2.32289063 0.01804688 3.51953125 0.02734375 C4.39996094 0.03894531 5.28039062 0.05054688 6.1875 0.0625 C6.1875 0.7225 6.1875 1.3825 6.1875 2.0625 C3.8775 1.7325 1.5675 1.4025 -0.8125 1.0625 C-1.1425 2.0525 -1.4725 3.0425 -1.8125 4.0625 C-10.38392857 5.34821429 -10.38392857 5.34821429 -13.8125 4.0625 C-11.8125 1.0625 -11.8125 1.0625 -9.61328125 0.37890625 C-6.38469737 0.01417083 -3.24883957 -0.03281656 0 0 Z " fill="#424956" transform="translate(233.8125,128.9375)"/>
<path d="M0 0 C0.66 0.33 1.32 0.66 2 1 C1.54109375 1.51949219 1.0821875 2.03898437 0.609375 2.57421875 C-2.68498874 6.31844309 -5.89794477 10.09370823 -9 14 C-9.66 14.66 -10.32 15.32 -11 16 C-12.32 16 -13.64 16 -15 16 C-15.66 15.34 -16.32 14.68 -17 14 C-16.1646875 13.48953125 -16.1646875 13.48953125 -15.3125 12.96875 C-9.4642293 9.2543078 -4.71634649 5.06332566 0 0 Z " fill="#4D525B" transform="translate(297,254)"/>
<path d="M0 0 C0.33 0 0.66 0 1 0 C0.88979143 3.08404808 0.75924186 6.16691192 0.625 9.25 C0.5940625 10.12269531 0.563125 10.99539062 0.53125 11.89453125 C0.49257813 12.73886719 0.45390625 13.58320313 0.4140625 14.453125 C0.36693115 15.61569824 0.36693115 15.61569824 0.31884766 16.80175781 C-0.03957778 19.27286242 -0.63470217 20.90987192 -2 23 C-2.99 23.33 -3.98 23.66 -5 24 C-4.41640925 15.68383188 -2.26200586 7.98540674 0 0 Z " fill="#4B525B" transform="translate(330,176)"/>
<path d="M0 0 C0.33 0.99 0.66 1.98 1 3 C1.66 3.33 2.32 3.66 3 4 C1.9024777 6.99324263 1.32317108 7.84610901 -1.625 9.25 C-2.40875 9.4975 -3.1925 9.745 -4 10 C-4.99 8.68 -5.98 7.36 -7 6 C-4.69 4.02 -2.38 2.04 0 0 Z " fill="#A5B597" transform="translate(302,284)"/>
<path d="M0 0 C0.99 0.33 1.98 0.66 3 1 C1.515 4.96 1.515 4.96 0 9 C2.64 9 5.28 9 8 9 C7.34 9.66 6.68 10.32 6 11 C6.33 11.66 6.66 12.32 7 13 C1.68634686 13.35424354 1.68634686 13.35424354 -0.9375 12 C-2.66704764 8.74438091 -1.80214522 5.49824443 -1 2 C-0.67 1.34 -0.34 0.68 0 0 Z " fill="#37373D" transform="translate(144,311)"/>
<path d="M0 0 C0.928125 0.495 1.85625 0.99 2.8125 1.5 C5.86527516 3.21289852 5.86527516 3.21289852 9 3 C9.33 2.01 9.66 1.02 10 0 C10.33 0 10.66 0 11 0 C10.25 6.625 10.25 6.625 8 10 C4.82537057 7.59757773 2.14248259 5.38286724 0 2 C0 1.34 0 0.68 0 0 Z " fill="#8B8F73" transform="translate(167,322)"/>
<path d="M0 0 C4.75481646 0.57634139 7.97048212 2.55068521 12 5 C12 5.66 12 6.32 12 7 C13.32 7.66 14.64 8.32 16 9 C10.59305933 8.56744475 7.24633878 7.41778487 3 4 C3 3.34 3 2.68 3 2 C2.34 2 1.68 2 1 2 C1 4.64 1 7.28 1 10 C0.67 10 0.34 10 0 10 C0 6.7 0 3.4 0 0 Z " fill="#9EA68F" transform="translate(245,286)"/>
<path d="M0 0 C0.33 0.66 0.66 1.32 1 2 C1.66 2 2.32 2 3 2 C3.6987693 3.76641683 4.38366583 5.53832664 5.0625 7.3125 C5.44535156 8.29863281 5.82820313 9.28476563 6.22265625 10.30078125 C7 13 7 13 6 16 C6 15.34 6 14.68 6 14 C5.01 14.33 4.02 14.66 3 15 C2.49596232 13.70990357 1.99690074 12.41786211 1.5 11.125 C1.2215625 10.40570313 0.943125 9.68640625 0.65625 8.9453125 C-0.32677983 6.03133123 0 3.06250091 0 0 Z " fill="#5A6470" transform="translate(352,154)"/>
<path d="M0 0 C1 3 1 3 0.00390625 5.48046875 C-0.47175781 6.37378906 -0.94742187 7.26710937 -1.4375 8.1875 C-1.91058594 9.08855469 -2.38367188 9.98960937 -2.87109375 10.91796875 C-3.42990234 11.94857422 -3.42990234 11.94857422 -4 13 C-4.66 13 -5.32 13 -6 13 C-6.2475 13.639375 -6.495 14.27875 -6.75 14.9375 C-8 17 -8 17 -10.078125 17.62890625 C-10.71234375 17.75136719 -11.3465625 17.87382812 -12 18 C-11.36771484 17.07767578 -11.36771484 17.07767578 -10.72265625 16.13671875 C-9.90087891 14.92435547 -9.90087891 14.92435547 -9.0625 13.6875 C-8.51722656 12.88699219 -7.97195313 12.08648437 -7.41015625 11.26171875 C-5.86162674 8.9741857 -5.86162674 8.9741857 -5 6 C-4.01 5.34 -3.02 4.68 -2 4 C-0.80767387 1.94996045 -0.80767387 1.94996045 0 0 Z " fill="#536C74" transform="translate(292,203)"/>
<path d="M0 0 C0.66 0.33 1.32 0.66 2 1 C0.1875 3 0.1875 3 -2 5 C-2.99 5 -3.98 5 -5 5 C-5 5.66 -5 6.32 -5 7 C-5.66 7 -6.32 7 -7 7 C-7 7.66 -7 8.32 -7 9 C-7.99 9 -8.98 9 -10 9 C-10 9.66 -10 10.32 -10 11 C-10.66 11 -11.32 11 -12 11 C-12 12.32 -12 13.64 -12 15 C-12.66 15 -13.32 15 -14 15 C-14.66666667 13.66666667 -15.33333333 12.33333333 -16 11 C-10.72 7.37 -5.44 3.74 0 0 Z " fill="#56575F" transform="translate(321,155)"/>
<path d="M0 0 C0.33 0.99 0.66 1.98 1 3 C0.44570312 3.54269531 -0.10859375 4.08539063 -0.6796875 4.64453125 C-1.76636719 5.71767578 -1.76636719 5.71767578 -2.875 6.8125 C-3.59429687 7.52019531 -4.31359375 8.22789062 -5.0546875 8.95703125 C-7.15358937 11.04399194 -7.15358937 11.04399194 -9 14 C-9.66 14 -10.32 14 -11 14 C-11 14.66 -11 15.32 -11 16 C-12.32 16.33 -13.64 16.66 -15 17 C-10.60502098 10.67467725 -5.54949524 5.32751543 0 0 Z " fill="#32353C" transform="translate(183,252)"/>
<path d="M0 0 C3.96 0 7.92 0 12 0 C11.48263876 5.60474681 10.71036463 10.6408575 9 16 C7.62567543 12.18243176 8.32024961 8.92744671 9 5 C8.01 4.34 7.02 3.68 6 3 C6.33 2.67 6.66 2.34 7 2 C4.69 1.67 2.38 1.34 0 1 C0 0.67 0 0.34 0 0 Z " fill="#989B8D" transform="translate(306,183)"/>
<path d="M0 0 C1.07511952 3.66449188 0.69247635 4.61504731 -1 8 C-2.29704431 14.13384127 -2.29704431 14.13384127 -1 20 C-4.72 18.56 -4.72 18.56 -5.8125 16.375 C-6.09706168 12.77055202 -4.54642347 9.94514375 -3.0625 6.75 C-2.77181641 6.1003125 -2.48113281 5.450625 -2.18164062 4.78125 C-1.46471025 3.18284785 -0.73371051 1.59076946 0 0 Z " fill="#737563" transform="translate(171,307)"/>
<path d="M0 0 C4.06225548 0.57823096 6.84762346 1.89117737 10.3125 4.0625 C11.19550781 4.61035156 12.07851563 5.15820312 12.98828125 5.72265625 C13.65214844 6.14417969 14.31601562 6.56570312 15 7 C11.49270578 8.16909807 9.55692677 7.85056945 6 7 C5.67 6.34 5.34 5.68 5 5 C3.35636866 4.27840576 1.68949614 3.60648579 0 3 C0 2.01 0 1.02 0 0 Z " fill="#575E6A" transform="translate(294,140)"/>
<path d="M0 0 C3.6875 1 3.6875 1 6 2 C2.8091702 2.95650167 0.00931278 3.0751754 -3.3125 3 C-7.67656172 2.95320041 -11.70831273 3.23703337 -16 4 C-11.37752229 -1.10066505 -6.40652745 -0.65563877 0 0 Z " fill="#A7A681" transform="translate(216,291)"/>
<path d="M0 0 C0.66 0.66 1.32 1.32 2 2 C0.73034469 3.43854058 -0.54077218 4.87579127 -1.8125 6.3125 C-2.52019531 7.11300781 -3.22789062 7.91351563 -3.95703125 8.73828125 C-5.59337122 10.54983162 -7.25272168 12.29681703 -9 14 C-8.55183136 9.07014496 -6.17966006 5.64833828 -3 2 C-2.01 1.34 -1.02 0.68 0 0 Z " fill="#3A3D43" transform="translate(185,266)"/>
<path d="M0 0 C1.65 0 3.3 0 5 0 C4.67 1.32 4.34 2.64 4 4 C5.32 4 6.64 4 8 4 C8.33 4.99 8.66 5.98 9 7 C11.50447516 8.21869929 11.50447516 8.21869929 14 9 C10.08428299 10.305239 8.96107003 9.32239848 5.3125 7.5625 C4.31863281 7.08941406 3.32476562 6.61632812 2.30078125 6.12890625 C1.54152344 5.75636719 0.78226563 5.38382812 0 5 C0.66 4.67 1.32 4.34 2 4 C2 3.34 2 2.68 2 2 C1.34 1.34 0.68 0.68 0 0 Z " fill="#B4967E" transform="translate(190,337)"/>
<path d="M0 0 C0.66 0.66 1.32 1.32 2 2 C1.23816406 2.02578125 0.47632813 2.0515625 -0.30859375 2.078125 C-7.34826804 2.46482371 -12.79394119 3.63054888 -19 7 C-19 6.34 -19 5.68 -19 5 C-13.78123497 -0.01001443 -6.85460506 -0.46471899 0 0 Z " fill="#949E83" transform="translate(218,267)"/>
<path d="M0 0 C0.66 0.33 1.32 0.66 2 1 C-1.96 6.94 -1.96 6.94 -6 13 C-7.25751405 10.4849719 -6.84039825 9.6655935 -6.125 7 C-5.94195312 6.29875 -5.75890625 5.5975 -5.5703125 4.875 C-5 3 -5 3 -4 1 C-3.01 1.33 -2.02 1.66 -1 2 C-0.67 1.34 -0.34 0.68 0 0 Z " fill="#828372" transform="translate(158,262)"/>
<path d="M0 0 C0.99 0.33 1.98 0.66 3 1 C2.40832031 1.58007812 1.81664062 2.16015625 1.20703125 2.7578125 C-3.09851719 7.01419481 -7.23200869 11.25962383 -11 16 C-11.33 15.34 -11.66 14.68 -12 14 C-9.41663021 8.68973987 -5.53640692 4.25557319 0 2 C0 1.34 0 0.68 0 0 Z " fill="#8E987D" transform="translate(173,242)"/>
<path d="M0 0 C0.99 0 1.98 0 3 0 C3.38133299 1.9914056 3.71325582 3.99279077 4 6 C3.67 6.33 3.34 6.66 3 7 C2.76924918 8.34747084 2.58846937 9.70377565 2.4375 11.0625 C2.2209375 13.0115625 2.2209375 13.0115625 2 15 C-0.07647071 11.88529393 -0.3624111 10.55611254 -0.6875 6.9375 C-0.77386719 6.05964844 -0.86023438 5.18179688 -0.94921875 4.27734375 C-1 2 -1 2 0 0 Z " fill="#30363C" transform="translate(130,244)"/>
<path d="M0 0 C0.68707555 2.49064888 1 4.37886292 1 7 C1.66 6.01 2.32 5.02 3 4 C2.67 6.31 2.34 8.62 2 11 C1.01 11.33 0.02 11.66 -1 12 C-2.20882096 14.00016466 -2.20882096 14.00016466 -3 16 C-4.31225809 12.06322574 -3.3393954 10.2205738 -2.0625 6.3125 C-1.68222656 5.13300781 -1.30195313 3.95351562 -0.91015625 2.73828125 C-0.60980469 1.83464844 -0.30945313 0.93101562 0 0 Z " fill="#8C9080" transform="translate(347,201)"/>
<path d="M0 0 C4 5 4 5 8 10 C7.01 10.33 6.02 10.66 5 11 C5 10.34 5 9.68 5 9 C3.02 8.34 1.04 7.68 -1 7 C-0.67 4.69 -0.34 2.38 0 0 Z " fill="#2C3845" transform="translate(151,175)"/>
<path d="M0 0 C0 0.99 0 1.98 0 3 C-1.97956942 4.69088222 -3.97945196 6.35830472 -6 8 C-6 8.66 -6 9.32 -6 10 C-12.96428571 12.27678571 -12.96428571 12.27678571 -17 11 C-16.27554687 10.62488281 -15.55109375 10.24976563 -14.8046875 9.86328125 C-9.36631982 6.98457196 -4.53517329 4.16745654 0 0 Z " fill="#858A76" transform="translate(302,282)"/>
<path d="M0 0 C0.33 0.99 0.66 1.98 1 3 C1.66 3.33 2.32 3.66 3 4 C0.63707344 6.52588702 -0.66462511 7.88820837 -4 9 C-4.33 9.66 -4.66 10.32 -5 11 C-5.66 11 -6.32 11 -7 11 C-5.5140084 6.40693504 -3.14985318 3.56430755 0 0 Z " fill="#7B8670" transform="translate(186,284)"/>
<path d="M0 0 C0.66 0.33 1.32 0.66 2 1 C2 1.66 2 2.32 2 3 C3.65 3.33 5.3 3.66 7 4 C6.67 4.66 6.34 5.32 6 6 C5.01 5.34 4.02 4.68 3 4 C3 9.94 3 15.88 3 22 C2.67 22 2.34 22 2 22 C1.67 16.39 1.34 10.78 1 5 C0.34 4.67 -0.32 4.34 -1 4 C-0.67 2.68 -0.34 1.36 0 0 Z " fill="#7C927C" transform="translate(241,218)"/>
<path d="M0 0 C0 0.66 0 1.32 0 2 C-1.0725 2.5775 -2.145 3.155 -3.25 3.75 C-5.71837718 5.13566848 -7.20630741 6.2180964 -9.1875 8.3125 C-9.785625 8.869375 -10.38375 9.42625 -11 10 C-13.11328125 9.60546875 -13.11328125 9.60546875 -15 9 C-13.20966193 7.68568828 -11.41768797 6.3736047 -9.625 5.0625 C-8.62726563 4.33160156 -7.62953125 3.60070312 -6.6015625 2.84765625 C-2.59196617 0 -2.59196617 0 0 0 Z " fill="#565865" transform="translate(340,144)"/>
<path d="M0 0 C1.77503906 0.03480469 1.77503906 0.03480469 3.5859375 0.0703125 C5.36871094 0.09738281 5.36871094 0.09738281 7.1875 0.125 C8.10273438 0.14820313 9.01796875 0.17140625 9.9609375 0.1953125 C9.9609375 0.5253125 9.9609375 0.8553125 9.9609375 1.1953125 C6.3309375 1.5253125 2.7009375 1.8553125 -1.0390625 2.1953125 C-1.0390625 2.8553125 -1.0390625 3.5153125 -1.0390625 4.1953125 C-1.6990625 4.1953125 -2.3590625 4.1953125 -3.0390625 4.1953125 C-3.6990625 5.5153125 -4.3590625 6.8353125 -5.0390625 8.1953125 C-5.1640625 5.3203125 -5.1640625 5.3203125 -5.0390625 2.1953125 C-3.0390625 0.1953125 -3.0390625 0.1953125 0 0 Z " fill="#646666" transform="translate(303.0390625,181.8046875)"/>
<path d="M0 0 C-4.62 1.65 -9.24 3.3 -14 5 C-14.33 3.35 -14.66 1.7 -15 0 C-14.06027344 0.01740234 -14.06027344 0.01740234 -13.1015625 0.03515625 C-11.87566406 0.04869141 -11.87566406 0.04869141 -10.625 0.0625 C-9.40683594 0.07990234 -9.40683594 0.07990234 -8.1640625 0.09765625 C-0.91743119 -0.2293578 -0.91743119 -0.2293578 0 0 Z " fill="#C5AC8E" transform="translate(291,346)"/>
<path d="M0 0 C1.42944945 2.35438733 2.08661261 3.48032433 1.625 6.25 C1.41875 6.8275 1.2125 7.405 1 8 C0.34 8 -0.32 8 -1 8 C-1.33 9.32 -1.66 10.64 -2 12 C-2.66 12 -3.32 12 -4 12 C-3.5317879 7.22423661 -2.75668002 3.95523655 0 0 Z " fill="#3E434D" transform="translate(149,178)"/>
<path d="M0 0 C0.95465783 2.16967689 1.14401212 3.56328793 0.3984375 5.82421875 C-0.35870385 7.5684743 -1.17609198 9.28627131 -2 11 C-2.66 9.68 -3.32 8.36 -4 7 C-4 7.66 -4 8.32 -4 9 C-4.66 9 -5.32 9 -6 9 C-6 6 -6 6 -4.625 4.3125 C-3 3 -3 3 -1 3 C-0.67 2.01 -0.34 1.02 0 0 Z " fill="#828C6E" transform="translate(151,269)"/>
<path d="M0 0 C1.30249153 3.59855032 0.69931441 5.58099473 -0.75 9.0625 C-1.09546875 9.91972656 -1.4409375 10.77695313 -1.796875 11.66015625 C-2.96264917 13.92735991 -4.09652606 15.33172543 -6 17 C-5.67 14.69 -5.34 12.38 -5 10 C-4.34 10 -3.68 10 -3 10 C-2.87625 9.0925 -2.7525 8.185 -2.625 7.25 C-2.07890323 4.41029677 -1.42736197 2.47409409 0 0 Z " fill="#9AB2A1" transform="translate(301,188)"/>
<path d="M0 0 C1.11375 0.4640625 1.11375 0.4640625 2.25 0.9375 C4.82579356 2.06012313 4.82579356 2.06012313 7 2.25 C10.32050284 3.49518856 11.87374798 6.22405987 14 9 C9.80500604 8.46351765 7.45751442 7.14637983 4.1875 4.5 C3.39730469 3.8709375 2.60710937 3.241875 1.79296875 2.59375 C1.20128906 2.0678125 0.60960937 1.541875 0 1 C0 0.67 0 0.34 0 0 Z " fill="#3E4049" transform="translate(240,268)"/>
<path d="M0 0 C1.32 0 2.64 0 4 0 C5.125 5.625 5.125 5.625 4 9 C3.01 8.67 2.02 8.34 1 8 C0.67 5.36 0.34 2.72 0 0 Z " fill="#3F4546" transform="translate(131,259)"/>
<path d="M0 0 C0.33 0 0.66 0 1 0 C0.88637738 1.4800841 0.75877092 2.95910074 0.625 4.4375 C0.55539063 5.26121094 0.48578125 6.08492187 0.4140625 6.93359375 C0.27742187 7.61550781 0.14078125 8.29742187 0 9 C-0.99 9.495 -0.99 9.495 -2 10 C-2.33 10.99 -2.66 11.98 -3 13 C-3.99 13.495 -3.99 13.495 -5 14 C-5.25 10.75 -5.25 10.75 -5 7 C-3.0625 4.75 -3.0625 4.75 -1 3 C-0.67 2.01 -0.34 1.02 0 0 Z " fill="#474E57" transform="translate(134,232)"/>
<path d="M0 0 C0.66 0.66 1.32 1.32 2 2 C1.96712417 4.72869407 1.43602229 7.2966618 1 10 C0.34 10 -0.32 10 -1 10 C-1.66 11.32 -2.32 12.64 -3 14 C-2.67 10.37 -2.34 6.74 -2 3 C-1.34 3 -0.68 3 0 3 C0 2.01 0 1.02 0 0 Z " fill="#B8BB9D" transform="translate(353,214)"/>
<path d="M0 0 C2 2 2 2 3 5 C3.66 5.66 4.32 6.32 5 7 C6.01241685 8.32392972 7.01439389 9.65599167 8 11 C4.55974272 9.75768487 1.69792186 8.50521315 -1 6 C-1.75 3.8125 -1.75 3.8125 -2 2 C-1.34 2 -0.68 2 0 2 C0 1.34 0 0.68 0 0 Z " fill="#AFA085" transform="translate(177,327)"/>
<path d="M0 0 C0.66 0.66 1.32 1.32 2 2 C1.5875 2.391875 1.175 2.78375 0.75 3.1875 C-1.32884913 5.34059374 -3.15468957 7.64563841 -5 10 C-5.99 9.67 -6.98 9.34 -8 9 C-7.04663979 7.68388323 -6.08714226 6.37221039 -5.125 5.0625 C-4.59132812 4.33160156 -4.05765625 3.60070312 -3.5078125 2.84765625 C-2 1 -2 1 0 0 Z " fill="#3B444C" transform="translate(189,248)"/>
<path d="M0 0 C3.3 0.66 6.6 1.32 10 2 C10 2.33 10 2.66 10 3 C9.40832031 3.12117187 8.81664062 3.24234375 8.20703125 3.3671875 C3.96196415 4.26744643 -0.02439661 5.20456621 -4 7 C-3.525625 6.21625 -3.05125 5.4325 -2.5625 4.625 C-1.66101977 3.11051322 -0.78820515 1.5764103 0 0 Z " fill="#3D4149" transform="translate(201,251)"/>
<path d="M0 0 C-0.33 0.99 -0.66 1.98 -1 3 C-1.66 3 -2.32 3 -3 3 C-3 2.34 -3 1.68 -3 1 C-3.51949219 1.28875 -4.03898438 1.5775 -4.57421875 1.875 C-11.50087873 5.56239016 -11.50087873 5.56239016 -16 5 C-10.76953337 0.7381383 -6.74841402 -0.26464369 0 0 Z " fill="#41474F" transform="translate(210,241)"/>
<path d="M0 0 C0.66 0 1.32 0 2 0 C1.88658363 2.31309705 1.75896193 4.62550185 1.625 6.9375 C1.52058594 8.86916016 1.52058594 8.86916016 1.4140625 10.83984375 C1.27742187 11.88269531 1.14078125 12.92554688 1 14 C0.01 14.495 0.01 14.495 -1 15 C-1.18451025 4.44191344 -1.18451025 4.44191344 0 0 Z " fill="#353841" transform="translate(131,224)"/>
<path d="M0 0 C1.4370809 -0.05422947 2.87475462 -0.09289723 4.3125 -0.125 C5.11300781 -0.14820313 5.91351563 -0.17140625 6.73828125 -0.1953125 C9 0 9 0 12 2 C12 2.99 12 3.98 12 5 C11.278125 4.67 10.55625 4.34 9.8125 4 C6.98302573 2.99396471 4.97104534 2.83022598 2 3 C2 2.34 2 1.68 2 1 C1.34 0.67 0.68 0.34 0 0 Z " fill="#2B3646" transform="translate(329,173)"/>
<path d="M0 0 C1 2 1 2 -0.125 5.4375 C-1.68880731 8.92879075 -3.479691 10.38256073 -7 12 C-5.44298069 7.32894208 -2.91552627 3.91294315 0 0 Z " fill="#B0AC87" transform="translate(188,307)"/>
<path d="M0 0 C1.65 0.33 3.3 0.66 5 1 C5.33 2.65 5.66 4.3 6 6 C5.01 5.67 4.02 5.34 3 5 C3 5.66 3 6.32 3 7 C-0.875 5.25 -0.875 5.25 -2 3 C-1.01 2.67 -0.02 2.34 1 2 C0.67 1.34 0.34 0.68 0 0 Z " fill="#96A385" transform="translate(250,243)"/>
<path d="M0 0 C0.5775 0.20625 1.155 0.4125 1.75 0.625 C-3.10359495 4.64176824 -8.29972335 3.90636159 -14.25 3.625 C-14.58 2.965 -14.91 2.305 -15.25 1.625 C-14.64671875 1.64820313 -14.0434375 1.67140625 -13.421875 1.6953125 C-12.62265625 1.71335938 -11.8234375 1.73140625 -11 1.75 C-9.81664062 1.78480469 -9.81664062 1.78480469 -8.609375 1.8203125 C-5.27862626 1.54458827 -3.29423067 -0.54903844 0 0 Z " fill="#5E7679" transform="translate(273.25,227.375)"/>
<path d="M0 0 C1.32 0.33 2.64 0.66 4 1 C2.02 5.455 2.02 5.455 0 10 C-0.66 9.67 -1.32 9.34 -2 9 C-2.20140476 5.37471432 -1.85776765 3.13498292 0 0 Z " fill="#363740" transform="translate(158,304)"/>
<path d="M0 0 C0.66 0 1.32 0 2 0 C0.98994782 3.03015654 -0.30496456 5.38681097 -1.9375 8.125 C-2.72447266 9.45917969 -2.72447266 9.45917969 -3.52734375 10.8203125 C-5 13 -5 13 -7 14 C-2.8 2.8 -2.8 2.8 0 0 Z " fill="#A8B299" transform="translate(334,242)"/>
<path d="M0 0 C1.98 0 3.96 0 6 0 C3.19195732 2.96404505 0.81684226 5.44499019 -3 7 C-3.33 6.01 -3.66 5.02 -4 4 C-2.68 3.34 -1.36 2.68 0 2 C0 1.34 0 0.68 0 0 Z " fill="#858974" transform="translate(178,237)"/>
<path d="M0 0 C0.33 0.99 0.66 1.98 1 3 C0.01 3.33 -0.98 3.66 -2 4 C-3.22520264 7.00847418 -3.22520264 7.00847418 -4 10 C-4.99 10 -5.98 10 -7 10 C-5.94124926 6.59687262 -4.99097846 3.98646769 -3 1 C-2.01 0.67 -1.02 0.34 0 0 Z " fill="#3F4148" transform="translate(160,284)"/>
<path d="M0 0 C0.33 0.66 0.66 1.32 1 2 C-0.65 4.31 -2.3 6.62 -4 9 C-4.99 8.67 -5.98 8.34 -7 8 C-7 6.35 -7 4.7 -7 3 C-6.01 3.33 -5.02 3.66 -4 4 C-4 4.66 -4 5.32 -4 6 C-2.68 4.02 -1.36 2.04 0 0 Z " fill="#7A7B67" transform="translate(146,282)"/>
<path d="M0 0 C0.33 0.66 0.66 1.32 1 2 C-0.49786883 5.51999175 -1.94585316 8.60979813 -5 11 C-5.66 11 -6.32 11 -7 11 C-5.5140084 6.40693504 -3.14985318 3.56430755 0 0 Z " fill="#AAB39A" transform="translate(325,258)"/>
<path d="M0 0 C0.66 0.33 1.32 0.66 2 1 C1.65120368 4.25543229 0.97866739 5.01873107 -1.5625 7.25 C-2.7690625 8.11625 -2.7690625 8.11625 -4 9 C-4 5.24517355 -3.88186002 4.0318856 -2 1 C-1.34 0.67 -0.68 0.34 0 0 Z " fill="#3D3F4A" transform="translate(192,257)"/>
<path d="M0 0 C1.05981268 4.23925073 0.86301927 6.76335997 0 11 C-0.66 11.66 -1.32 12.32 -2 13 C-2.6425235 15.06874034 -2.6425235 15.06874034 -3 17 C-3.66 17 -4.32 17 -5 17 C-4.67 15.02 -4.34 13.04 -4 11 C-3.34 11 -2.68 11 -2 11 C-1.34 7.37 -0.68 3.74 0 0 Z " fill="#C6C2A3" transform="translate(349,229)"/>
<path d="M0 0 C2.125 0.375 2.125 0.375 4 1 C3.34 1 2.68 1 2 1 C2.19471111 2.94999129 2.19471111 2.94999129 3 5 C4.9837767 6.28436734 4.9837767 6.28436734 7 7 C4.69 7 2.38 7 0 7 C-0.66 5.35 -1.32 3.7 -2 2 C-1.34 1.34 -0.68 0.68 0 0 Z " fill="#546780" transform="translate(313,165)"/>
<path d="M0 0 C-0.54269531 0.39832031 -1.08539063 0.79664063 -1.64453125 1.20703125 C-2.71767578 2.00173828 -2.71767578 2.00173828 -3.8125 2.8125 C-4.87404297 3.59560547 -4.87404297 3.59560547 -5.95703125 4.39453125 C-7.78531393 5.83128877 -9.39896688 7.31815763 -11 9 C-9.25 3.25 -9.25 3.25 -7 1 C-2.38461538 -1.19230769 -2.38461538 -1.19230769 0 0 Z " fill="#51555D" transform="translate(303,157)"/>
<path d="M0 0 C0.99 0.33 1.98 0.66 3 1 C2.34 1 1.68 1 1 1 C0.896875 1.556875 0.79375 2.11375 0.6875 2.6875 C-0.15531466 5.52242204 -1.25558821 7.60950977 -3 10 C-4.32 10.33 -5.64 10.66 -7 11 C-4.69 7.37 -2.38 3.74 0 0 Z " fill="#4B4F58" transform="translate(305,242)"/>
<path d="M0 0 C1 3 1 3 0.125 4.9375 C-0.24625 5.618125 -0.6175 6.29875 -1 7 C-1.36784131 8.3242287 -1.71202981 9.65613912 -2 11 C-3.32 10.67 -4.64 10.34 -6 10 C-4.6302836 6.00499382 -2.74277578 3.19990508 0 0 Z " fill="#6F8475" transform="translate(153,237)"/>
<path d="M0 0 C0 0.66 0 1.32 0 2 C0.66 2.33 1.32 2.66 2 3 C1.0925 3.28875 0.185 3.5775 -0.75 3.875 C-3.32202908 4.76531776 -5.61346766 5.71494413 -8 7 C-7.8125 5.1875 -7.8125 5.1875 -7 3 C-2.82142857 0 -2.82142857 0 0 0 Z " fill="#425759" transform="translate(192,203)"/>
<path d="M0 0 C1.07765625 0.00902344 2.1553125 0.01804688 3.265625 0.02734375 C4.08546875 0.03894531 4.9053125 0.05054688 5.75 0.0625 C5.75 0.3925 5.75 0.7225 5.75 1.0625 C4.02192682 1.40145656 2.29248026 1.73341525 0.5625 2.0625 C-0.88189453 2.3409375 -0.88189453 2.3409375 -2.35546875 2.625 C-5.0434206 3.03127612 -7.53771019 3.14183572 -10.25 3.0625 C-10.25 2.4025 -10.25 1.7425 -10.25 1.0625 C-6.78777385 -0.00473961 -3.60960734 -0.03923486 0 0 Z " fill="#3A5153" transform="translate(202.25,201.9375)"/>
<path d="M0 0 C1.0326802 2.78823655 1.04509293 3.8677274 0.0625 6.75 C-0.288125 7.4925 -0.63875 8.235 -1 9 C-1.66 8.34 -2.32 7.68 -3 7 C-3.99 7.99 -4.98 8.98 -6 10 C-5.34 7.69 -4.68 5.38 -4 3 C-2.68 3 -1.36 3 0 3 C0 2.01 0 1.02 0 0 Z " fill="#C9B299" transform="translate(352,275)"/>
<path d="M0 0 C0.66 0 1.32 0 2 0 C1.5206753 4.31392226 0.2542015 6.16569547 -3 9 C-3.66 8.67 -4.32 8.34 -5 8 C-4.67 7.34 -4.34 6.68 -4 6 C-3.34 6 -2.68 6 -2 6 C-1.855625 5.195625 -1.71125 4.39125 -1.5625 3.5625 C-1 1 -1 1 0 0 Z " fill="#8FA89B" transform="translate(290,210)"/>
<path d="M0 0 C2 0 2 0 4.125 1.875 C6 4 6 4 6 6 C6.66 6.33 7.32 6.66 8 7 C6.02 7 4.04 7 2 7 C0.5393715 4.35261084 0 3.10551666 0 0 Z " fill="#283C48" transform="translate(176,202)"/>
<path d="M0 0 C0.66 0.99 1.32 1.98 2 3 C1.34 4.32 0.68 5.64 0 7 C-0.99 7 -1.98 7 -3 7 C-3 7.66 -3 8.32 -3 9 C-3.99 8.67 -4.98 8.34 -6 8 C-4.66666667 6.66666667 -3.33333333 5.33333333 -2 4 C-2.33 3.34 -2.66 2.68 -3 2 C-2.01 1.34 -1.02 0.68 0 0 Z " fill="#484F59" transform="translate(176,150)"/>
<path d="M0 0 C1.98 0.495 1.98 0.495 4 1 C4.33 2.32 4.66 3.64 5 5 C3.02 5.33 1.04 5.66 -1 6 C-1 3 -1 3 0 0 Z " fill="#707B62" transform="translate(198,224)"/>
<path d="M0 0 C0.33 0 0.66 0 1 0 C0.88590407 1.45922693 0.75834456 2.91740598 0.625 4.375 C0.55539062 5.18710938 0.48578125 5.99921875 0.4140625 6.8359375 C0 9 0 9 -2 11 C-2.33 8.03 -2.66 5.06 -3 2 C-2.01 2.33 -1.02 2.66 0 3 C0 2.01 0 1.02 0 0 Z " fill="#AEB7A1" transform="translate(315,186)"/>
<path d="M0 0 C1.28555502 2.57111004 0.75838148 3.26982666 0 6 C-0.34578768 7.99788438 -0.68143549 9.99759451 -1 12 C-1.33 10.68 -1.66 9.36 -2 8 C-2.66 8 -3.32 8 -4 8 C-2.87548273 5.0280615 -1.77706209 2.66559313 0 0 Z " fill="#777D67" transform="translate(176,299)"/>
<path d="M0 0 C0 4.38968456 -2.12805101 5.76905739 -5 9 C-5.99 8.67 -6.98 8.34 -8 8 C-5.36 5.36 -2.72 2.72 0 0 Z " fill="#70655A" transform="translate(313,271)"/>
<path d="M0 0 C1 3 1 3 0.0625 5.1875 C-0.4634375 6.0846875 -0.4634375 6.0846875 -1 7 C-1.99 6.67 -2.98 6.34 -4 6 C-4 4.33333333 -4 2.66666667 -4 1 C-2.68 0.67 -1.36 0.34 0 0 Z " fill="#3D4E5A" transform="translate(184,257)"/>
<path d="M0 0 C0.99 1.32 1.98 2.64 3 4 C2.34 4 1.68 4 1 4 C1 4.66 1 5.32 1 6 C-0.98 6.99 -0.98 6.99 -3 8 C-2.67 6.68 -2.34 5.36 -2 4 C-2.66 3.67 -3.32 3.34 -4 3 C-2.68 2.01 -1.36 1.02 0 0 Z " fill="#4A5665" transform="translate(344,140)"/>
<path d="M0 0 C-3.00617269 3.00617269 -5.82381598 2.59585316 -10 3 C-10.33 2.34 -10.66 1.68 -11 1 C-3.57142857 -1.42857143 -3.57142857 -1.42857143 0 0 Z " fill="#41464E" transform="translate(220,132)"/>
<path d="M0 0 C0.33 0.66 0.66 1.32 1 2 C-0.4375 4.625 -0.4375 4.625 -2 7 C-3.32 6.67 -4.64 6.34 -6 6 C-5.34 6 -4.68 6 -4 6 C-3.896875 5.38125 -3.79375 4.7625 -3.6875 4.125 C-3 2 -3 2 0 0 Z " fill="#B2AC87" transform="translate(198,296)"/>
<path d="M0 0 C0.66 0 1.32 0 2 0 C0.6190998 3.33717549 -0.8201238 5.22301036 -4 7 C-6.25 6.6875 -6.25 6.6875 -8 6 C-2.25 2 -2.25 2 0 2 C0 1.34 0 0.68 0 0 Z " fill="#5C6777" transform="translate(340,144)"/>
<path d="M0 0 C0.66 0.99 1.32 1.98 2 3 C0.68 3.99 -0.64 4.98 -2 6 C-3.32 5.34 -4.64 4.68 -6 4 C-4.04783565 2.04783565 -2.46800047 1.15173355 0 0 Z " fill="#414E59" transform="translate(187,145)"/>
<path d="M0 0 C1.65 0 3.3 0 5 0 C5 0.66 5 1.32 5 2 C2 4 2 4 -1 5 C-1 4.34 -1 3.68 -1 3 C-2.32 2.67 -3.64 2.34 -5 2 C-3.35 2 -1.7 2 0 2 C0 1.34 0 0.68 0 0 Z " fill="#505C6D" transform="translate(262,130)"/>
<path d="M0 0 C2.475 0.495 2.475 0.495 5 1 C4.67 1.99 4.34 2.98 4 4 C3.67 3.34 3.34 2.68 3 2 C2.34 2 1.68 2 1 2 C1 4.64 1 7.28 1 10 C0.67 10 0.34 10 0 10 C0 6.7 0 3.4 0 0 Z " fill="#A4B091" transform="translate(245,286)"/>
<path d="M0 0 C0.33 0 0.66 0 1 0 C1.33 2.64 1.66 5.28 2 8 C1.01 8 0.02 8 -1 8 C-1.33 7.01 -1.66 6.02 -2 5 C-2.99 4.67 -3.98 4.34 -5 4 C-4.360625 3.71125 -3.72125 3.4225 -3.0625 3.125 C-0.84793921 2.17176549 -0.84793921 2.17176549 0 0 Z " fill="#5A687C" transform="translate(360,182)"/>
<path d="M0 0 C1.65 0.33 3.3 0.66 5 1 C4.67 1.99 4.34 2.98 4 4 C2.35 4.33 0.7 4.66 -1 5 C-0.67 3.35 -0.34 1.7 0 0 Z " fill="#666B78" transform="translate(306,148)"/>
<path d="M0 0 C0.66 0.33 1.32 0.66 2 1 C0.02 3.97 0.02 3.97 -2 7 C-2.33 6.01 -2.66 5.02 -3 4 C-3.66 3.67 -4.32 3.34 -5 3 C-4.67 2.34 -4.34 1.68 -4 1 C-3.01 1.33 -2.02 1.66 -1 2 C-0.67 1.34 -0.34 0.68 0 0 Z " fill="#777A68" transform="translate(158,262)"/>
<path d="M0 0 C2.64 0 5.28 0 8 0 C7.01 1.485 7.01 1.485 6 3 C3.375 3.1875 3.375 3.1875 1 3 C0.67 2.01 0.34 1.02 0 0 Z " fill="#91A89C" transform="translate(261,231)"/>
<path d="M0 0 C-1.09068668 3.77545388 -1.9083091 6.47043472 -5 9 C-5.36666667 3.5 -5.36666667 3.5 -3.625 1.125 C-2 0 -2 0 0 0 Z " fill="#A7B19A" transform="translate(302,224)"/>
<path d="M0 0 C1 2 1 2 0.375 4.0625 C-1 6 -1 6 -3.625 6.75 C-4.800625 6.87375 -4.800625 6.87375 -6 7 C-4.02 4.69 -2.04 2.38 0 0 Z " fill="#8BA399" transform="translate(284,219)"/>
<path d="M0 0 C0.66 0.33 1.32 0.66 2 1 C2 2.32 2 3.64 2 5 C1.34 5 0.68 5 0 5 C-0.33 5.66 -0.66 6.32 -1 7 C-1.625 4.625 -1.625 4.625 -2 2 C-1.34 1.34 -0.68 0.68 0 0 Z " fill="#434751" transform="translate(154,172)"/>
<path d="M0 0 C0.99 0.33 1.98 0.66 3 1 C2 3 1 5 0 7 C-1.32 6.67 -2.64 6.34 -4 6 C-2.68 4.02 -1.36 2.04 0 0 Z " fill="#464851" transform="translate(159,165)"/>
<path d="M0 0 C1.32 0.66 2.64 1.32 4 2 C2.02 3.98 0.04 5.96 -2 8 C-2.66 7.67 -3.32 7.34 -4 7 C-3.34 6.21625 -2.68 5.4325 -2 4.625 C0.20201441 2.28487188 0.20201441 2.28487188 0 0 Z " fill="#B79F8A" transform="translate(323,319)"/>
<path d="M0 0 C0.66 0 1.32 0 2 0 C1.46930939 3.82097239 0.50298434 6.06171403 -2 9 C-1.125 1.125 -1.125 1.125 0 0 Z " fill="#3A3842" transform="translate(166,291)"/>
<path d="M0 0 C4.67692308 1.47692308 4.67692308 1.47692308 6.3125 4.125 C6.539375 4.74375 6.76625 5.3625 7 6 C2.32307692 4.52307692 2.32307692 4.52307692 0.6875 1.875 C0.460625 1.25625 0.23375 0.6375 0 0 Z " fill="#A6B396" transform="translate(245,241)"/>
<path d="M0 0 C0.33 0.66 0.66 1.32 1 2 C1.66 2.33 2.32 2.66 3 3 C-1.75 6 -1.75 6 -4 6 C-4 5.34 -4 4.68 -4 4 C-3.34 4 -2.68 4 -2 4 C-1.34 2.68 -0.68 1.36 0 0 Z " fill="#778D77" transform="translate(161,228)"/>
<path d="M0 0 C0.66 0.99 1.32 1.98 2 3 C0 6 0 6 -3 8 C-2.67 6.02 -2.34 4.04 -2 2 C-1.34 2 -0.68 2 0 2 C0 1.34 0 0.68 0 0 Z " fill="#8BA294" transform="translate(302,184)"/>
<path d="M0 0 C2.97 1.98 2.97 1.98 6 4 C5.01 4 4.02 4 3 4 C1.32900023 4.31088368 -0.33871537 4.64080332 -2 5 C-2 4.01 -2 3.02 -2 2 C-1.34 2 -0.68 2 0 2 C0 1.34 0 0.68 0 0 Z " fill="#494D5A" transform="translate(341,176)"/>
<path d="M0 0 C0.66 0.33 1.32 0.66 2 1 C2 1.66 2 2.32 2 3 C1.34 3 0.68 3 0 3 C0 4.32 0 5.64 0 7 C-0.66 7 -1.32 7 -2 7 C-2.66666667 5.66666667 -3.33333333 4.33333333 -4 3 C-2.68 2.01 -1.36 1.02 0 0 Z " fill="#565D6B" transform="translate(309,163)"/>
<path d="M0 0 C1.65 0.33 3.3 0.66 5 1 C2.6875 3.0625 2.6875 3.0625 0 5 C-0.99 4.67 -1.98 4.34 -3 4 C-2.01 2.68 -1.02 1.36 0 0 Z " fill="#475564" transform="translate(233,130)"/>
<path d="M0 0 C1.32 0.66 2.64 1.32 4 2 C2.68 3.32 1.36 4.64 0 6 C-0.38218767 4.34385343 -0.71395102 2.67542976 -1 1 C-0.67 0.67 -0.34 0.34 0 0 Z " fill="#D1B9A0" transform="translate(334,306)"/>
<path d="M0 0 C0.66 1.32 1.32 2.64 2 4 C0.35 5.32 -1.3 6.64 -3 8 C-2.37240135 5.07120629 -1.41377341 2.63904371 0 0 Z " fill="#748A77" transform="translate(138,260)"/>
<path d="M0 0 C1.66666667 3.33333333 3.33333333 6.66666667 5 10 C1.125 8.25 1.125 8.25 0 6 C-0.039992 4.00039988 -0.04346799 1.99952758 0 0 Z " fill="#5B6B7B" transform="translate(290,172)"/>
<path d="M0 0 C0.66 0 1.32 0 2 0 C2.36923077 4.55384615 2.36923077 4.55384615 0.5 6.8125 C0.005 7.204375 -0.49 7.59625 -1 8 C-1.93065133 5.39417629 -2.14917407 4.35801776 -1.0625 1.75 C-0.711875 1.1725 -0.36125 0.595 0 0 Z " fill="#5E6A76" transform="translate(291,162)"/>
<path d="M0 0 C0 0.66 0 1.32 0 2 C-3.96 3.98 -3.96 3.98 -8 6 C-6.72879117 2.18637351 -4.19078006 0 0 0 Z " fill="#494853" transform="translate(340,144)"/>
</svg>
